<svg viewBox="0 0 2048 649" xmlns="http://www.w3.org/2000/svg">
  <path fill="#20649E" transform="translate(1656,125)" d="m0 0h24l22 2 24 4 23 6 25 9 24 11 14 8 19 13 13 11 12 11 12 12 7 8 11 14 10 14 11 18 8 17 3 9v12l-8 5-26 13-19 10-44 22-19 10-34 17-28 13-29 14-28 13-29 14-20 9-4 1-5-12-16-42-7-18v-3l28-15 22-12 26-14 22-12 26-14 22-12 39-21-2-6-11-12-13-9-16-8-12-5-24-7-20-3h-37l-19 3-25 7-18 8-15 8-17 13-8 7-7 8-10 12-12 19-11 24-5 15-4 20-1 8v28l3 19 5 18 8 18 10 17 8 10 12 14 10 9 13 10 21 13 15 7 21 7 20 4 9 1h29l21-3 19-5 19-7 16-8 16-11 13-12 8-9 10-15 10-19 9-24 8-32 5-27 23 2 70 8 3 2v25l-3 24-6 24-8 22-12 24-12 19-14 18-12 13-7 8-8 7-11 10-16 12-20 13-27 14-25 10-24 7-22 4-20 2h-32l-22-2-26-5-25-7-25-10-25-13-18-12-12-9-15-13-20-20-9-11-11-15-12-19-9-17-8-19-8-24-5-22-3-22-1-14v-16l2-24 5-26 8-26 9-21 10-19 14-21 13-16 7-8 20-20 10-8 19-14 19-11 19-10 23-9 23-7 25-5 16-2z"/>
  <path fill="#20649E" transform="translate(714,124)" d="m0 0h34l27 3 23 5 20 6 20 8 20 10 17 11 12 9 14 12 13 13 11 14 11 16 10 18 9 21 5 15 5 21 3 20 2 23 1 28v265l-1 1h-87l-1-1-1-60-1-143-2-84-2-21-4-20-7-21-8-16-7-11-7-9-11-12-13-10-16-9-16-7-18-5-20-3h-33l-21 3-19 5-15 6-15 8-12 9-11 10-11 14-9 15-8 19-6 25-2 19-1 43-3 217-1 38-45 1h-41l-1-1-1-104v-188l3-31 5-25 6-21 8-19 8-16 11-18 11-14 11-12 13-13 14-11 18-12 27-14 25-9 19-5 22-4z"/>
  <path fill="#20649E" transform="translate(1,122)" d="m0 0h85l1 2v171l1 137 1 27 2 20 4 15 5 12 9 12 9 9 13 9 14 8 20 8 19 5 19 3 9 1h35l21-2 27-6 19-7 16-8 17-12 12-11 9-12 7-14 5-18 2-13 1-12 1-39v-284l1-1h84l1 1 1 250v79l-1 19-4 29-5 18-9 19-9 14-9 12-13 15-12 12-11 9-15 11-16 9-17 8-21 7-24 6-25 4-22 2h-42l-30-3-26-5-25-7-21-8-19-9-16-10-12-9-13-12-15-15-9-11-9-13-8-15-6-18-4-23-2-24z"/>
  <path fill="#20649E" transform="translate(1200)" d="m0 0 3 1 1 124 10-1 160 1v66l-2 1-98 1h-69l-1 39-1 36v71l1 135 1 35 3 14 5 10 9 9 10 6 20 8 24 6 30 4 38 3 28 2 1 1v68l-9 1-58 2-48 1-25-1-21-3-20-6-19-10-14-11-10-9-10-12-10-19-6-20-3-17-2-22-1-34-1-172v-259l1-34 1-13 14-1z"/>
  <path fill="#20649E" transform="translate(1978,1)" d="m0 0h68l1 312v329l-31 1h-53l-1-10v-631z"/>
  <path fill="#20649E" transform="translate(998,125)" d="m0 0 66 1 24 1 1 1v208l-1 307h-76l-13-1-1-76z"/>
  <path fill="#EC3839" transform="translate(1036,1)" d="m0 0h14l14 4 10 7 5 5 6 8 4 9 2 10v9l-3 12-5 10-9 10-9 6-12 4h-20l-13-5-9-7-8-9-5-11-2-8v-13l3-11 5-10 7-8 10-7 10-4z"/>
</svg>
