<svg xmlns="http://www.w3.org/2000/svg" width="1024" height="573" viewBox="0 0 2048 1146"><path fill="#90b9fd" d="M650 223h8l10 3 9 5 13 11 9 11 9 8 11 6 1 3 7 1 9 5 9 8 7 14 3 13v20l-3 20-4 15-2 1-7 1-6 4-6 7-4 8-2 7v17l2 5-1 5-10 7-12 6-12 3-12 1-16-2-2-1-2-5-6-2-10-2h-6l-2 2v6l9 3 14 3v-2l12 2h17l12-2 12-5 9-5 7-6 5 1 2 1h8l8-4 7-8 5-12 1-5v-13l-4-9-5-5 4-19 2-13 1-16-2-18-4-11-6-10-5-6 6 1 11 6 7 8 4 8 3 5 9 7 6 8 5 11 3 12 2 22v30h340l7 4 4 6 1 3v12l-2 31-6 90-2 37-2 26-3 54-1 9-1 22-1 10-3 54-1 10-3 54-7 107-3 8-8 7-5 2-758 1-34-1-8-4-5-7-1-11 9-142 1-6-25 3-11-24-6-15v-3l24-9 15-5h6l5-82 6-95v-8l-11-8-3-1v-2l-240-1-11-2-10-4-11-9-7-11-4-12v-24l3-56 1-9 1-24 2-26 2-30 4-12 7-12 8-7 8-6 13-5 5-1h335l13 1 12 4 10 7 9 10 5 12 1 3v20l-1 20-2 27-1 19h130l2-26 4-23 5-18 8-19 2-3-4-2-9-13-4-10v-8l4-4 2-1h21l5-1 2-20 3-8 4-5 8-5z"/><path fill="#027dfd" d="M160 945h935l9 4 6 7 1 7-2 3 163 1v137H0V967l145-1-2-4 1-5 4-6 8-5z"/><path fill="#e8f1fd" d="M821 422h297l5 2 2 2v20l-20 318-8 126-1 12-2 5-3 2H796l-6-17-12-24-2-8-1-8v-9l-4-1-1-18v-43l2-38 3-29 4-26 9-7 6-3 3 6 16 50 15 43 6 14 7 9 8 5 6 2h11l10-4 9-6 9-13 11-21 12-31 14-44 10-37 5-20 6-7 6-13 2-9 1-9 2-33v-16l-20-14-7-5-3-1-2 6-16 32 3 16 6 26-2 6-22 54-15 35-12 26-4 8h-2l-20-71-5-19 17-13 4-4-10-24-12-25-12-20-5-8 3-13v-10l-3-11-5-10-7-11-7-16-5-19-3-24v-12z"/><path fill="#1e2f37" d="M650 223h8l10 3 9 5 13 11 9 11 9 8 11 6 1 3 7 1 9 5 9 8 7 14 3 13v20l-3 20-4 15-2 1-7 1-6 4-6 7-4 8-2 7v17l2 5-1 5-10 7-12 6-12 3-12 1-16-2-2-1-2-5-6-2-10-2h-6l-2 2v6l9 3 14 3v-2l12 2h17l12-2 12-5 9-5 7-6 5 1 2 1h8l8-4 7-8 5-12 1-5v-13l-4-9-5-5 4-19 2-13 1-16-2-18-4-11-6-10-5-6 6 1 11 6 7 8 4 8 3 5 9 7 6 8 5 11 3 12 2 22v30h340l7 4 4 6 1 3v12l-2 31-6 90-2 37-2 26-3 54-1 9-1 22-1 10-3 54-1 10-3 54-7 107-3 8-8 7-5 2-758 1-34-1-8-4-5-7-1-11 9-142 1-6-25 3-11-24-6-15v-3l24-9 15-5h6l5-82 6-95 1-7 9 5 6 4v16l-10 159v7l24 9 16 9 16 10 23 13 22 11 16 6 15 3 13-43 12-42 14-47 4-14 5 2 24 16 1 2 5 45 1 10-15 43-9 26-9 24-7 11-8 7-10 5-11 3h-12l-15-3-16-6-17-9-12-8-17-12-11-9-11-10-8-7-3-2-17 1h-6l-5 75-3 48v15l3 3 232 1h242l300-1 3-1 2-17 17-269 11-175v-20l-2-2-4-1H797l3 30 4 19 6 16 7 13 7 11 3 9 1 5v10l-2 9-3 3-5-6-8-5-26-5-19-3-28-3-4-1-4-7-11-7-5-1-2 4-7 10-6 7-12 9-16 8-15 5-9 2h-6l-5-4-5-8-2-8v-9l1-6-3-5-5 1-9 5-4 5-36 5-36 6-9 4-6 4-5-8-1-3v-11l5-10 9-10 10-9 17-12 16-11 13-10 8-9 2-5v-7l-5-17-135-1 1-26 1-3 130-1 2-26 4-23 5-18 8-19 2-3-4-2-9-13-4-10v-8l4-4 2-1h21l5-1 2-20 3-8 4-5 8-5z"/><path fill="#037efd" d="M76 269h335l13 1 12 4 10 7 9 10 5 12 1 3v20l-1 20-2 27-1 23-1 21-2 23-2 36-3 10-10 15-9 8-12 7-12 3h-44l5 15 6 21 4 11v4l-4-2-11-7v-2l-5-2-8-6-3-1v-2l-5-2-6-3v-2l-5-2-22-16-3-1v-2l-240-1-11-2-10-4-11-9-7-11-4-12v-24l3-56 1-9 1-24 2-26 2-30 4-12 7-12 8-7 8-6 13-5z"/><path fill="#0256b5" d="M160 945h935l9 4 6 7 1 7-2 3 163 1v137H999V968H147v-2h-2l-2-4 1-5 4-6 8-5z"/><path fill="#fbfcfd" d="M821 422h297l5 2 2 2v20l-20 318-8 126-1 12-2 5-3 2H796l-6-17-12-24-2-8-1-8v-9l-4-1-1-18v-43l2-38 3-29 4-26 9-7 6-3 3 6 16 50 15 43 6 14 1 5-12 22-16 31-11 20-4 9 1 5 4 10 9 1h274l1-17 4-60 12-189 12-192v-12l-78 1-5 8-14 27-14 26-12 23-13 23-7 14-1-2-5-2-17-12-7-5-3-1-2 6-16 32 3 16 6 26-2 6-22 54-15 35-12 26-4 8h-2l-20-71-5-19 17-13 4-4-10-24-12-25-12-20-5-8 3-13v-10l-3-11-5-10-7-11-7-16-5-19-3-24v-12z"/><path fill="#e7f0fd" d="M455 422h135l6 18v7l-3 6-9 10-16 12-22 15-14 11-9 9-6 10-1 3v11l6 13-8 15-8 24-10 42-1 6 5 2 1 2-20 68-21 72-3 7-15-3-20-8-24-12-27-16-18-11-25-10-4-2 1-23 10-157 5 1 6 4v2l4 1 12 8v2l5 2 10 7-6-18-6-21-3-10v-2l44-1 12-3 13-8 8-7 9-14 3-10 3-52z"/><path fill="#91bafe" d="M356 0h197l12 5 9 8 6 12 1 4v13l-4 68-3 47-3 12-7 10-9 8-11 5-4 1-110 1-12 6-23 15-19 12-10 5 1-5 13-30 1-3h-19l-17-1-11-4-9-7-6-10-3-10 1-27 6-95 2-12 5-10 9-10 9-5z"/><path fill="#e7f0fd" d="M535 714h1l3 19 8 57 8 50-1 3h-4l3 21v8l-3 24-1 13H317l-4-4v-15l7-111 1-12 1-1h14l10-1 8 8 8 7 12 10 18 13 15 10 17 9 16 6 15 3h12l14-4 11-7 8-10 6-14 19-54 9-27z"/><path fill="#1e2f37" d="M650 223h8l10 3 9 5 13 11 9 11 9 8 11 6 1 3 7 1 9 5 9 8 7 14 3 13v20l-3 20-4 15-2 1-7 1-6 4-6 7-3 3-3-4-4-18v-16l1-14-5-2-12-9-11-6-12-2-50-1-12-2-2 5-1 2 8 1 2 1-1 3-10-1-3 5-6 16-5 21-2 15v33l3 15 6 14 10 13 11 8 12 6 11 3 3 9v17l-3 10-6 9-8 6-5 2-4-6-5 1-9 5-4 5-36 5-36 6-9 4-6 4-5-8-1-3v-11l5-10 9-10 10-9 17-12 16-11 13-10 8-9 2-5v-7l-5-17-135-1 1-26 1-3 130-1 2-26 4-23 5-18 8-19 2-3-4-2-9-13-4-10v-8l4-4 2-1h21l5-1 2-20 3-8 4-5 8-5z"/><path fill="#cc5c55" d="m612 308 12 1 50 1 12 2 11 6 17 12 1 3-1 11v16l4 18 3 5-3 7-1 4v17l2 5-1 5-10 7-12 6-12 3-12 1-16-2-2-1-2-5-6-2-10-2h-6l-2 2v6l9 3 14 3v-2l12 2h17l12-2 12-5 9-5 7-6 5 1 3 3-6 9-11 12-10 9v30l4 20 2 4 2 2-9 12-6 7-12 9-16 8-15 5-9 2h-6l-5-4-5-8-2-8v-9l1-5 11-6 6-7 4-9 1-5v-17l-2-9-8-1-12-5-11-8-6-5-9-13-6-16-2-11v-33l3-20 5-19 6-16 3-3 10 1 1-2-10-1v-3z"/><path fill="#1d2e36" d="M160 945h935l9 4 6 7 1 7-3 4-15 1-946-1-3-3-1-5 5-8 8-5z"/><path fill="#cd5d56" d="m320 532 9 5 6 4v16l-10 159v7l24 9 16 9 16 10 23 13 22 11 16 6 15 3 13-43 12-42 14-47 4-14 5 2 24 16 1 2 5 45 1 10-15 43-9 26-9 24-7 11-8 7-10 5-11 3h-12l-15-3-16-6-17-9-12-8-17-12-11-9-11-10-8-7-3-2-17 1-11 1-37 4-11-24-6-15v-3l24-9 15-5h6l5-82 6-95zM933 524l4 1 16 11 11 8v16l-2 33-2 14-4 11-6 10-3 3-11 43-9 30-12 36-10 25-11 21-10 13-9 6-9 3h-11l-10-4-7-6-7-11-11-30-13-38-12-38-1-3 8-7 19-13 16-12 6-2 18 64 6 21v4h2l2-6 12-25 30-72 9-22 1-4-8-34-1-8z"/><path fill="#027dfc" d="M571 840h6l2 3h75l1-3h8l3 3h74l1-3h9l1 3h24l3 23 8 15 4 9 5 14 1 5-5 1H549v-14l3-24v-8l-2-16v-5l17-2z"/><path fill="#e8f1fe" d="M907 424h56v6l-8 16-18 35-12 22-15 29-11 20-8 16-17 32-10 18h-2l-1 3-11-26-11-22-6-10 5-12 10-19 17-32 12-22 12-23 12-22z"/><path fill="#fbfcfd" d="m546 797 2 4 2 7 5 34-5 1 3 21v8l-3 24-1 13H317l-4-4v-15l1-16 2-3h2l-2 16 1 7h176l3-3 16-31 10-19 15-28 8-15zM101 330h288l5 5v8l-5 5-76 1-214-1-4-6v-6l4-5z"/><path fill="#fcfcfd" d="M94 440h231l4 5v7l-5 5-2 1H93l-5-6 1-8z"/><path fill="#fbfcfc" d="m713 510 7 1 10 7 2 3v7l-8 12-11 13-12 10-12 7-19 7-17 3h-18l-10-5-10-9-6-8-3-7-1-5 1-13 4-11 5-4 8-4 4 1 3 5-1 6v9l3 10 6 8 2 1 11-1 17-5 16-8 10-7 7-6z"/><path fill="#161c22" d="M1015 393h122l7 4 4 6 1 3v12l-2 31-6 90-2 37-2 26-3 54-1 9-1 22-1 10-3 54-1 10-3 54-7 107-3 8-8 7-4-1 6-7 2-9 3-44 7-102 3-54 3-45 5-80 5-79 6-95v-15l-2-7-5-2-3-2h-15l-9 1H834l-11-1v-1z"/><path fill="#0d191f" d="M911 946h187l6 3 6 7 1 7-3 4-15 1-155-1v-11l7-9h-34z"/><path fill="#fbfcfd" d="M445 33h14l13 3 11 6 7 8 4 10v13l-6 12-11 11-11 9-6 7-5 10-6 3h-13l-1-5 2-12 4-8 8-9 14-11 6-7 1-2v-9l-4-6-6-3-11-1-9 3-5 4-7 9-5 3-8-1-5-6v-8l4-6 5-6 11-7 9-3z"/><path fill="#20313a" d="m320 532 9 5 6 4v16l-10 159-1 6-6-1-9-4v-21l10-157z"/><path fill="#fbfcfd" d="M97 385h125l5 3 1 2v7l-4 5-2 1H96l-4-4v-9z"/><path fill="#e8f1fe" d="m793 678 3 3 13 41-1 5-5 8-12 23-12 22-4 7h-2l-1 3-1 34h-1v-43l2-38 3-29 4-26 9-7z"/><path fill="#4397f7" d="M740 841h1l2 25h-76l-2-8-1-15h76zM579 843h75l1 2 1 21h-76l-2-14v-7z"/><path fill="#f8fafc" d="M276 384h21l11 1 5 3 2 4-1 6-4 4-3 1h-53l-4-4-1-7 3-5 3-2z"/><path fill="#fafbfd" d="m667 624 49 1 11 1 1 1v13l-3 2h-17l-39-1-5-2-1-1v-7l2-6z"/><path fill="#92bafd" d="M746 375h7l5 5 2 8v12l-5 12-3 3-9 6h-5l-5-5-2-7v-8l4-13 6-9z"/><path fill="#4899f7" d="M751 843h24l2 17v6h-23l-3-16z"/><path fill="#fbfbfd" d="M441 133h10l6 4 1 2v9l-6 7-2 1h-10l-5-5-1-2v-8l4-6z"/><path fill="#f9fbfc" d="m634 425 12 1 9 2 3 3v4l18 2 12-1 11-2 3 3-11 3-7 1h-19l-10-3v2l-14-2-9-3-1-1v-6z"/><path fill="#4899f7" d="M567 841h1l2 25h-16l-1 3-3-21v-5z"/><path fill="#026fe3" d="M972 955h38l1 1v5h-39l-1-5z"/><path fill="#d8e6fd" d="M535 956h39l-1 5h-38z"/><path fill="#026fe3" d="M1020 955h25l1 5-1 1h-26l-1-3z"/><path fill="#16252c" d="M1015 393h75v1l-65 1-1 1h-39v-2z"/><path fill="#0d191f" d="M1090 393h42v1l-15 1-9 1h-83v-2z"/><path fill="#1d2f37" d="m606 340 10 5 1 2v6l-4 6-5-2-1-1 1-9v-3zM655 349l5 2 4 2 1 7-3 6-4 1-3-3 1-12z"/><path fill="#f7f9fc" d="m697 434 5 2-4 2-7 2-7 1h-15l-1-3 4-1h9z"/><path fill="#fafbfd" d="M330 638h1l1 13-2 18-1 22-1 5h-1l1-36 1-6z"/><path fill="#1d2f37" d="m672 325 9 3 9 7 1 3h-3l-9-7-9-4z"/><path fill="#101d23" d="M1015 393h11l-2 3h-14v-2z"/><path fill="#f3f7fd" d="M669 437h10l-1 4h-9l-1-3z"/><path fill="#f0eeee" d="m593 40 3 1-2 8-2-1v-2l-3-1z"/><path fill="#ecf2fc" d="M751 414v3l-7 6-3 1v-2l-2-1 8-3z"/></svg>
