<svg xmlns="http://www.w3.org/2000/svg" width="1348.313" height="766.688" viewBox="0 0 1530 868.913"><path fill="#1c53a5" d="M666-.564h17l16 3 16 6 36 16 35 16 36 16 28 13 29 13 35 16 29 13 21 10 12 9 8 9 5 10 2 8 2 24v8l-3 12-7 13-5 6 12 6 162 69 96 41 190 81 32 14 16 8 14 10 10 9 9 12 7 14 3 11 1 13-2 15-12 42-33 110-32 107-10 30-7 13-13 16-7 8-7 7-14 8-14 4-5 1h-14l-21-4-21-8-43-19-40-18-45-20-40-18-45-20-40-18-45-20-40-18-36-16-40-18-36-16-83-37-40-18-36-16-40-18-16-7-5 1-7 8-23 23-7 8-23 23-7 8-23 23-7 8-23 23-7 8-23 23-7 8-24 24-7 8-22 22-7 8-36 36-14 10-15 8-15 5-11 2h-21l-18-4-13-6-13-8-16-11-20-14-18-13-19-13-18-13-20-14-102-72-14-10-16-12-7-6-9-13-13-25-3-11v-15l3-12 7-13 9-12 13-13 8-7 13-12 11-9 15-14 8-7 10-9 8-7 10-9 11-9 15-14 11-9 15-14 8-7 10-9 8-7 10-9 11-9 15-14 8-7 10-9 8-7 10-9 11-9 15-14 8-7 10-9 11-9 15-14 8-7 10-9 8-7 10-9 11-9 16-15 11-9 14-13 8-7 10-9 14-12 13-12 8-7 14-12 13-12 8-7 10-9 11-9 15-14 11-9 7-7 11-9 15-14 11-9 12-11 13-9 14-7 13-4z"/><path fill="#1c53a6" d="M666-.564h17l16 3 16 6 36 16 35 16 36 16 28 13 29 13 35 16 29 13 21 10 12 9 8 9 5 10 2 8 2 24v8l-3 12-7 13-5 6 12 6 162 69 96 41 190 81 32 14 16 8 14 10 10 9 9 12 7 14 3 11 1 13-2 15-12 42-33 110-32 107-10 30-7 13-13 16-7 8-7 7-14 8-14 4-5 1h-14l-21-4-21-8-43-19-40-18-45-20-40-18-45-20-40-18-45-20-40-18-36-16-40-18-36-16-83-37-40-18-36-16-40-18-16-7-5 1-7 8-23 23-7 8-23 23-7 8-23 23-7 8-23 23-7 8-23 23-7 8-24 24-7 8-22 22-7 8-36 36-14 10-15 8-15 5-11 2h-21l-18-4-13-6-13-8-16-11-20-14-18-13-19-13-18-13-20-14-102-72-14-10-16-12-7-6-9-13-13-25-3-11v-15l3-12 7-13 9-12 13-13 8-7 13-12 11-9 15-14 8-7 10-9 8-7 10-9 11-9 15-14 11-9 15-14 8-7 10-9 8-7 10-9 11-9 15-14 8-7 10-9 8-7 10-9 11-9 15-14 8-7 10-9 11-9 15-14 8-7 10-9 8-7 10-9 11-9 16-15 11-9 14-13 8-7 10-9 14-12 13-12 8-7 14-12 13-12 8-7 10-9 11-9 15-14 11-9 7-7 11-9 15-14 11-9 12-11 13-9 14-7 13-4zm-45 92-14 4-11 6-9 8-11 17-9 14-15 24-36 57-15 24-11 17-12 20-15 23-10 16-13 21-9 15-5 14v18l5 13 6 8 13 11 17 9 58 26 20 9 43 19 101 45 29 13 25 11 65 29 29 13 34 15 155 69 146 65 38 17 41 18 42 19 41 18 20 8 15 4 7 1h12l16-5 10-7 7-8 8-16 12-38 21-69 13-43 22-72 16-53 2-10v-16l-3-11-7-13-9-10-15-11-21-10-152-65-75-32-49-21-26-11-30-13-64-27-30-13-26-11-80-34-108-46-91-39-64-27-15-5-9-2z"/><path fill="#5a5753" d="M666-.564h17l16 3 16 6 36 16 35 16 36 16 28 13 29 13 35 16 29 13 21 10 12 9 8 9 5 10 2 8 2 24v8l-3 12-7 13-5 6 12 6 162 69 96 41 190 81 32 14 16 8 14 10 10 9 9 12 7 14 3 11 1 13-2 15-12 42-33 110-32 107-10 30-7 13-13 16-7 8-7 7-14 8-14 4-5 1h-14l-21-4-21-8-43-19-40-18-45-20-40-18-45-20-40-18-45-20-40-18-36-16-40-18-36-16-83-37-40-18-36-16-40-18-16-7-5 1-7 8-23 23-7 8-23 23-7 8-23 23-7 8-23 23-7 8-23 23-7 8-24 24-7 8-22 22-7 8-36 36-14 10-15 8-15 5-11 2h-21l-18-4-13-6-13-8-16-11-20-14-18-13-19-13-18-13-20-14-102-72-14-10-16-12-7-6-9-13-13-25-3-11v-15l3-12 7-13 9-12 13-13 8-7 13-12 11-9 15-14 8-7 10-9 8-7 10-9 11-9 15-14 11-9 15-14 8-7 10-9 8-7 10-9 11-9 15-14 8-7 10-9 8-7 10-9 11-9 15-14 8-7 10-9 11-9 15-14 8-7 10-9 8-7 10-9 11-9 16-15 11-9 14-13 8-7 10-9 14-12 13-12 8-7 14-12 13-12 8-7 10-9 11-9 15-14 11-9 7-7 11-9 15-14 11-9 12-11 13-9 14-7 13-4zm-4 8-13 2-16 8-9 6-12 11-8 7-13 12-8 7-12 11-30 27-8 7-14 12-12 11-11 9-15 14-8 7-15 13-13 12-8 7-11 10-8 7-14 12-15 14-8 7-12 11-11 9-16 15-8 7-14 12-14 13-8 7-11 10-11 9-7 7-11 9-9 9-11 9-15 14-8 7-10 9-11 9-8 8-11 9-15 14-11 9-8 8-8 7-10 9-15 13-10 9-8 7-12 11-8 7-10 9-8 7-13 12-11 11-9 14-3 9v18l5 10 10 10 17 12 20 14 16 11 40 28 19 13 43 30 20 14 19 13 16 11 17 12 12 8 17 11 12 5 16 3h9l16-3 13-5 16-10 15-14 45-45 7-8 43-43 7-8 50-50 7-8 43-43 7-8 16-16-3-3-18-8-15-7-31-14-36-16-28-13-16-7-19-9-12-8-12-11-7-11-5-13-1-4v-22l1-16 5-19 11-19 10-16 14-22 11-17 13-21 15-23 10-16 56-88 16-25 6-7 10-8 4-3 7-3 11-5 15-3h16l17 3 17 6 38 16 45 19 25 11 10 4 26 11 37 16 12 5 56 24 26 11 10 3 4-1 13-14 8-10 5-11 3-10-1-6h-5l-4 11-7 11-2 4-4 2-15 16-2 2-5-1-4-2 17-17 7-8 7-11 3-10-1-9-5-10-8-8-14-8-19-9-29-13-57-26-39-18-29-13-28-13-29-13-19-8-11-3zm-41 84-14 4-11 6-9 8-11 17-9 14-15 24-36 57-15 24-11 17-12 20-15 23-10 16-13 21-9 15-5 14v18l5 13 6 8 13 11 17 9 58 26 20 9 43 19 101 45 29 13 25 11 65 29 29 13 34 15 155 69 146 65 38 17 41 18 42 19 41 18 20 8 15 4 7 1h12l16-5 10-7 7-8 8-16 12-38 21-69 13-43 22-72 16-53 2-10v-16l-3-11-7-13-9-10-15-11-21-10-152-65-75-32-49-21-26-11-30-13-64-27-30-13-26-11-80-34-108-46-91-39-64-27-15-5-9-2z"/><path fill="#0b0b0c" d="M621 83.436h16l17 3 17 6 38 16 45 19 25 11 10 4 26 11 37 16 12 5 56 24 26 11 46 20 73 31 70 30 45 19 37 16 26 11 70 30 45 19 37 16 38 16 41 18 4 1v2l6 2 14 10 10 9 9 12 6 13 2 8v21l-9 33-13 43-18 60-16 53-23 76-9 27-6 11-11 12-11 7-12 4-5 1h-18l-16-3-24-9-40-18-25-11-38-17-43-19-40-18-41-18-40-18-36-16-236-105-166-74-40-18-79-35-42-19-17-8-15-10-12-12-6-10-4-12v-18l3-12 9-17 15-24 12-19 16-25 11-17 13-20 11-18 11-17 12-20 13-20 12-19 14-22 11-16 9-9 11-7 13-5zm0 8-14 4-11 6-9 8-11 17-9 14-15 24-36 57-15 24-11 17-12 20-15 23-10 16-13 21-9 15-5 14v18l5 13 6 8 13 11 17 9 58 26 20 9 43 19 101 45 29 13 25 11 65 29 29 13 34 15 155 69 146 65 38 17 41 18 42 19 41 18 20 8 15 4 7 1h12l16-5 10-7 7-8 8-16 12-38 21-69 13-43 22-72 16-53 2-10v-16l-3-11-7-13-9-10-15-11-21-10-152-65-75-32-49-21-26-11-30-13-64-27-30-13-26-11-80-34-108-46-91-39-64-27-15-5-9-2z"/><path fill="#1f53a4" d="m681 7.436 10 1 16 6 42 19 28 13 36 16 34 16 31 14 24 11 29 13 23 11 9 7 6 7 4 8 1 9-3 10-7 11-16 17-8 8 6 3 4-1 10-10 7-8 3-1 2-4 7-11 4-11h4l2 3-2 10-5 12-6 8-10 11-7 8-10-2-20-8-53-23-17-7-12-5-28-12-11-5-24-10-11-5-15-6-2-3-12-5-18-7-8-4-22-9-1-4 1-1-1-9-3-10v-11l1-4-1-11 2-11v-3l-2-1h4l1 2 3-1 4-6-4 1h-8l3-1v-2l-4-1-1-3-6-2v-11l-1-5z"/><path fill="#515050" d="M666-.564h17l16 3 16 6 36 16 35 16 36 16 28 13 29 13 35 16 38 17 1 3 11 6 10 9 6 7 4 11v10l-4 11-7 11-5 5-16 17-3 3-5-1-5-2 6-7 11-11 7-8 7-11 3-10-1-9-5-10-7-7-14-8-19-9-29-13-57-26-39-18-29-13-28-13-29-13-19-8-11-3h-24l-13 2-16 8-9 6-12 11-8 7-13 12-8 7-12 11-30 27-8 7-14 12-12 11-11 9-15 14-8 7-15 13-13 12-8 7-11 10-8 7-14 12-15 14-8 7-12 11-11 9-16 15-8 7-14 12-14 13-8 7-11 10-11 9-7 7-11 9-9 9-11 9-15 14-8 7-10 9-11 9-8 8-11 9-15 14-11 9-8 8-8 7-10 9-15 13-10 9-8 7-12 11-8 7-10 9-8 7-13 12-10 10-9 14-3 9v18l5 10 9 9 17 12 20 14 16 11 40 28 19 13 43 30 20 14 19 13 16 11 17 12 12 8 17 11 12 5 16 3h9l16-3 13-5 16-10 15-14 44-44 7-8 43-43 7-8 50-50 7-8 43-43 7-8 17-17 10 4-2 4-42 42-7 8-32 32-7 8-21 21v-3l8-8 1-3-5 3-7 8-21 21-7 8-11 11-7 8-14 15-9 11-15 16-12 13-9 10-21 21-15 10-14 7-14 4-6 1h-25l-15-4-12-5-15-10-23-16-16-11-10-7-17-12-23-16-17-12-46-32-17-12-23-16-20-14-17-12-13-10-8-8-7-14-1-4v-13l3-12 4-7 2-9 11-12 7-7 8-7 13-12 11-9 15-14 8-7 10-9 8-7 10-9 11-9 15-14 11-9 15-14 8-7 10-9 8-7 10-9 11-9 15-14 8-7 10-9 8-7 10-9 11-9 15-14 8-7 10-9 11-9 15-14 8-7 10-9 8-7 10-9 11-9 16-15 11-9 14-13 8-7 10-9 14-12 13-12 8-7 14-12 13-12 8-7 10-9 11-9 15-14 11-9 7-7 11-9 15-14 11-9 12-11 13-9 14-7 13-4z"/><path fill="#5b71a7" d="M662 7.436h19l2 1 2 7v9l6 2 1 3 3 1v2h9l-2 4-2 3-4 1v-3l-2 1 1 4-2 10 1 12-1 9-1 5 2 1v4l3 9v5l-1 5 5 1 36 15 11 5 9 4-3 1-88-37-16-5-13-2h-16l-15 3-14 7-7 3-9 8-6 5-16 25-12 19-11 17-12 19-16 25-2 2-1-3 2-3 1-7-2-2-10 6-8 4-8 6-8 4h-3l-5 4-10 7-9 6-4 2-15 8-4 2h-2l-8 4-9 5-5 4-25 13-14 7-11 8-9 3-13 7-15 6 6-7 12-11 11-9 16-15 11-9 14-13 8-7 13-12 8-7 10-9 8-7 14-12 14-13 8-7 10-9 8-7 12-11 8-7 14-12 12-11 11-9 12-11 8-7 14-13 8-7 13-12 8-7 12-11 10-9 12-9 16-8 6-2z"/><path fill="#5b5854" d="m13 558.436 1 3-3 7-4 10-1 6v13l4 11 6 9 7 7 19 14 19 13 83 58 90 63 16 11 23 16 14 7 13 4 5 1h25l17-4 14-6 15-10 10-9 2-2 3 1-9 11-3 4 5-2 6-5 7-8 73-73 7-8 7-7 5-3 11-11 8-7 9-10 6-7h13l2-9 3-4 6-3 5 2 4 1 15-10 7-3 10-9v3l-7 8-23 23-7 8-23 23-7 8-23 23-7 8-24 24-7 8-22 22-7 8-36 36-14 10-15 8-15 5-11 2h-21l-18-4-13-6-13-8-16-11-20-14-18-13-19-13-18-13-20-14-102-72-14-10-16-12-7-6-9-13-13-25-3-11v-15l3-12 7-13z"/><path fill="#7782a0" d="M662 7.436h19l2 1 2 7v9l6 2 1 3 3 1v2h9l-2 4-2 3-4 1v-3l-2 1 1 4-2 10 1 12-1 9-1 5 2 1v4l3 9v5l-1 5 5 1 36 15 11 5 9 4-3 1-88-37-16-5-13-2h-16l-15 3-14 7-7 3-9 8-6 5-8 12-5 2-4-4v-2l-5-1-3-4-7-2v-7l2-3-2-1 14-12 16-15 8-7 13-12 8-7 12-11 10-9 12-9 16-8 6-2z"/><path fill="#0b0b0c" d="m609 540.436 10 4-2 4-42 42-7 8-32 32-7 8-21 21v-3l8-8 1-3-5 3-7 8-21 21-7 8-11 11-7 8-14 15-9 11-15 16-12 13-9 10-21 21-15 10-14 7-14 4-6 1h-25l-15-4-12-5-15-10-23-16-16-11-10-7-17-12-23-16-17-12-46-32-17-12-23-16-20-14-17-12-13-10-8-8-7-14-1-4v-13l3-12 9-15 4-3-1 4-8 16-4 11v4h4l1-4h2l2 12 5 10 9 9 17 12 20 14 16 11 40 28 19 13 43 30 20 14 19 13 16 11 17 12 12 8 17 11 12 5 16 3h9l16-3 13-5 16-10 15-14 44-44 7-8 43-43 7-8 50-50 7-8 43-43 7-8z"/><path fill="#e85b4c" d="M1234 628.436h10l16 4 13 7 10 9 7 9 5 11 1 5v14l-4 11-9 10-6 4-9 3-6 1h-10l-16-4-13-7-10-9-8-11-4-10-1-5v-13l4-11 9-10 12-6z"/><path fill="#6a5d58" d="m619 545.436 6 1 23 11 4 2-4 2-7 8-23 23-7 8-21 21-4 2-8 7-12 6-8 6-4 1-5-3-5 2-3 1-3 7-2 5-13 1-12 13-7 8-12 11-5 5-5 3-10 10-7 8-73 73-6 7-5 3-3-1 12-15v-3l16-16 7-8 12-13 11-12 9-11 7-7 7-8 15-16 8-8 7-8 26-26h2l-1 4-8 8 5-4 21-21 7-8 32-32 7-8z"/><path fill="#6ecd72" d="M397 586.436h11l13 3 10 6 5 5 4 5 3 11v9l-4 11-6 9-9 9-12 7-12 4-6 1h-17l-13-4-6-4-6-5-6-12v-17l7-14 8-9 14-9 15-5z"/><path fill="#5c5955" d="M588 620.436v3l-7 8-23 23-7 8-23 23-7 8-23 23-7 8-24 24-7 8-22 22-7 8-34 34-1-3 1-5-6-9v-2l-3-1-1-4-7 4-7 1 2-4 1-3-6 4-2-1 13-10 7-7 3 1-9 11-3 4 5-2 6-5 7-8 73-73 7-8 7-7 5-3 11-11 8-7 9-10 6-7h13l2-9 3-4 6-3 5 2 4 1 15-10 7-3z"/><path fill="#6ecd72" d="M1303 429.436h18l13 4 10 5 10 9 7 8 5 10 1 4v15l-5 10-5 5-5 4-11 4h-18l-14-4-11-6-12-11-7-12-3-12 1-11 5-10 8-7 9-4z"/><path fill="#e95b4c" d="M208 470.436h17l10 3 10 6 6 8 2 5v13l-5 12-7 9-10 8-12 6-15 4h-14l-12-3-10-6-6-9-2-6v-11l4-10 8-11 10-8 14-7z"/><path fill="#676568" d="m952 116.436 6 2 12 7 12 11 6 10 3 11 2 24v8l-3 12-7 13-5 6 12 6 162 69 96 41 190 81 32 14 16 8 14 10 10 9 9 12 7 14 3 11 1 13-2 15-12 42-33 110-32 107-10 30-7 13-5 6-4 1-14 6-4-1 13-8 10-10 7-12 12-36 14-46 3-16 13-43 14-47 15-50 11-37 5-19v-21l-4-13-6-11-8-10-10-9-14-9-4-2v-2l-6-1-41-18-38-16-75-32-91-39-26-11-42-18-31-13-30-13-33-14-35-15-26-11-42-18-9-4 3-1 4-1 12-13 8-10 5-11 3-10-1-5-2 1-1-2-2-14-5-10-10-10-15-9z"/><path fill="#0b0b0c" d="M554 194.436h11l10 5 4 5 2 4v6l-8 14-12 19-21 35-7 8-9 3h-8l-10-5-6-7v-11l14-22 9-15 12-19 10-15 6-4z"/><path fill="#4a4a49" d="m13 627.436 4 2 5 6 14 10 2 1v2l4 2 12 8 10 7 8 6 11 7 11 8 17 12 30 21 15 11 10 6v2l5 2 18 13 11 7 8 6 16 11 6 5 15 10 2 1v2l5 2 9 7 5 5 8 6 5 11v4l-4-1-16-11-20-14-18-13-19-13-18-13-20-14-102-72-14-10-16-12-7-6-9-13-3-6z"/><path fill="#0b0b0c" d="M664 1.436h31l18 6 40 18 42 19 35 16 29 13 40 18 35 16 18 8 1 3 11 6 10 9 6 7 4 11v10l-4 11-7 11-5 5-16 17-3 3-5-1-5-2 6-7 11-11 7-8 7-11 3-10-1-9-5-10-7-7-14-8-19-9-29-13-57-26-39-18-29-13-28-13-29-13-19-8-11-3-18-3z"/><path fill="#5d70a3" d="M662 7.436h19l2 1 2 7v9l6 2 1 3 3 1v2h9l-2 4-2 3-4 1v-3l-2 1 1 4-2 10 1 12-1 9-1 5 2 1v4l3 9v5l-1 5 5 1 36 15 11 5 9 4-3 1-88-37-5-2 1-5v-12l-2-9-3-24-2-21-4-8 2-2z"/><path fill="#5f5d5b" d="M666-.564h17l6 1v1l-24 1 3 2 12 2v1l-27 2-13 5-12 7-13 11-13 12-30 27-12 11-8 7-11 10-8 7-14 12-12 11-11 9-15 14-8 7-15 13-13 12-8 7-11 10-8 7-14 12-15 14-8 7-12 11-11 9-5 5-2-1 17-17h2v-2l6-5 5-6 11-9 8-6 7-8 11-11 1-2-6 3-3 3-2-1 7-7 11-9 16-15 11-9 15-14 8-7 14-12 13-12 8-7 10-9 11-9 15-14 11-9 7-7 11-9 15-14 11-9 12-11 13-9 14-7 13-4z"/><path fill="#77819e" d="m619 545.436 6 1v4l-28 28-7 8-43 43-7 8-38 38-6 7-24 24-7 8-73 73-6 7-5 3-3-1 12-15v-3l16-16 7-8 12-13 11-12 9-11 7-7 7-8 15-16 8-8 7-8 26-26h2l-1 4-8 8 5-4 21-21 7-8 32-32 7-8z"/><path fill="#0b0b0c" d="m768 56.436 10 1 25 11 35 16 14 7 4 5v6l-4 6-8 4h-15l-26-12-41-19-8-5-3-5 2-7 8-6z"/><path fill="#5b5651" d="m588 94.436 2 1-12 11-18 27-14 22-24 38-11 18-15 23-7 12-8 12-11 17-14 22-24 38-11 19-5 12-2 10-1 11h-1l-1-7-4-2 1-8 4-12 10-17 10-16 14-22 11-17 13-21 15-23 10-16 56-88 16-25 7-8 10-8z"/><path fill="#565658" d="M666-.564h17l6 1v1l-24 1 3 2 12 2v1l-27 2-13 5-12 7-13 11-13 12-30 27-12 11-7 6-7 4-6 5-5-1 1-4 11-12 11-9 7-7 11-9 15-14 11-9 12-11 13-9 14-7 13-4z"/><path fill="#494847" d="M385 796.436h2l2 4 3 3 6 9-2 9-12 9-16 9-13 3-1-12-2-3v-7l7-8 9-6z"/><path fill="#fafafa" d="M620 547.436h6l-2 4-27 27-7 8-43 43-7 8-38 38-6 7-24 24-7 8-74 74h-2l2-4 17-17 7-8 11-10 7-8 30-30 7-8 13-13 7-8 9-9 5-7 5-3 16-17 33-33 7-8 18-18 7-9 29-29z"/><path fill="#5c5a56" d="m952 116.436 6 2 12 7 12 11 6 10 3 11 2 24v8l-3 12-7 13-5 6v3l-9-3-16-7 3-1 4-1 12-13 8-10 5-11 3-10-1-5-2 1-1-2-2-14-5-10-10-10-15-9z"/><path fill="#5c5956" d="M1464 715.436h1v7l-9 29-12 39-7 19-7 11-11 11-10 6 9-3 8-4h2l-2 5-9 11-10 10-14 8-14 4-5 1h-14v-1l12-1 2-4 9-11 8-1v-2l14-4 4-2h-24l-8-1v-1l15-2 15-4 10-6 10-9 7-11 5-12 15-48z"/><path fill="#7b85a2" d="m1491 633.436 3 3-4 16-19 63-21 70-9 27-7 13-5 6-4 1-14 6-4-1 13-8 10-10 7-12 12-36 14-46 2-10h2l2-11 16-52z"/><path fill="#737a8f" d="M1527 500.436h1l1 5 1 3-2 15-12 42-21 70-4 1-14 45-10 34h-2l2-9 12-40 14-47 15-50 11-37 2-7h2l2-11z"/><path fill="#fafafa" d="m1478 576.436 5 1-1 8-16 51-20 65-4 12-2 1-3-2 2-10 27-87 10-33zM103 650.436l5 1 19 13 23 16 19 13 16 11 23 16 16 11 2 4-5 1-15-10-23-16-19-13-20-14-32-22-10-7z"/><path fill="#7782a1" d="m523 113.436 2 1-8 8 1 1-1 9-7 8-6 7-9 6-8 7-5 4-10 5-5 1-4 3h-6l5-6 11-9 16-15 8-7 14-12z"/><path fill="#6e7487" d="M983 161.436h4l2 3-2 10-5 12-6 8-10 11-7 8-10-2-20-8-51-22-1-2 6 1 11 5 47 20 5 2 4-1 10-10 7-8 3-1 2-4 7-11z"/><path fill="#5f5d60" d="m695 2.436 7 1 20 8 230 104-1 2-9-3-7-3v-2l-6-1-57-26-10-4-26-11-28-13-20-10v-2l-7-1-24-11v-2l-7-1-4-2v-2l-7-1-2-1v-2l-7-1-25-11-10-3z"/><path fill="#fafafa" d="M1251 652.436h9l5 4-1 5-4 6-9-1-3 10v4l5 4v8l-1 4-4 1-8-4-3-6-1-8 3-12 4-8z"/><path fill="#494846" d="M413 376.436h1l1 14 5 15-1 2-4-2-3-1 6 15 3 5v10l-3 7h-3l-7-14-3-10v-22l1-16 2-1 4 2z"/><path fill="#fafafa" d="M389 605.436h8l1 1v8l-2 4-6 2v14l6-1 2 1 2 10-3 3-7 1-6-3-4-6-2-8 1-13 4-8z"/><path fill="#4b4947" d="M515 645.436h2l-1 4-8 8-1 4-30 30-7 8-38 38-7 8-17 17v-3l8-8 7-8 13-14 9-11 7-7 7-8 15-16 8-8 7-8 21-21z"/><path fill="#636265" d="m977 221.436 6 2 108 46 136 58 12 5v1l-8-1-23-10-49-21-31-13-30-13-33-14-35-15-52-22z"/><path fill="#fafafa" d="M192 494.436h7l11 4 9 6 5 7v6l-4 5-7 1-6-6 2-4v-3l-7-5-5 1-7 1-7-3 1-6zM1336 459.436h5l4 4v7l-5 5-10 5-10 2-11-1-6-3-3-4 1-5 2-1h10l4 4 9-1 4-3-1-5z"/><path fill="#5a5651" d="m450 299.436 1 2-5 9-1 4-16 26-9 16-4 10-2 10-1 11h-1l-1-7-4-2 1-8 4-12 10-17 10-16 14-22z"/><path fill="#fafafa" d="M599 325.436h7l5 5 7-1 5 4 1 5-4 6-3 2-8-1-4-6h-8l-3-4 1-7z"/><path fill="#e6e7e9" d="m611 112.436 9 2 4 3-1 6-8 12-6 1-8-4-1-4 8-13z"/><path fill="#605853" d="m588 94.436 2 1-12 11-18 27-14 22-12 19-7 11-2-3 10-16 4-9 12-19 16-25 7-8 10-8z"/><path fill="#fafafa" d="m582 358.436 4 1-1 2-6 3v5l5 4 1-7 4-3h9l5 4 1 6-5 6h-11l-10-5-4-6 1-6 4-3z"/><path fill="#6b605e" d="M1396 848.436h8l-3 5-5 6-1 4-11 4-10 2h-14v-1l12-1 2-4 9-11 8-1v-2z"/><path fill="#fafafa" d="M636 261.436h11l10 5 3 3 1 5-3 5-5 2-4-1 1-2 6-3-1-6-4-2v5l-4 4-6 1-7-3-2-3 1-7z"/><path fill="#736b6b" d="M666-.564h17l6 1v1l-24 1 3 2 12 2v1l-27 2-13 5-12 7h-3l9-9h-5l3-3 15-6 12-3z"/><path fill="#e3e4e9" d="M925 134.436h6l16 8 1 4-5 5-5 1-16-7-3-3 2-4z"/><path fill="#646671" d="M1464 715.436h1v7l-9 29-12 39-7 19-7 11-11 11-10 6 9-3 5-2-5 5-14 5h-10l1-2 6-1v-2l12-5 10-8 7-8 8-16 12-38z"/><path fill="#5b5752" d="m486 245.436 1 4-12 18-24 38-5 7-1-2 5-9 1-5 11-18 13-21 7-9z"/><path fill="#fafafa" d="m503 506.436 5 1 10 6-1 5-8 7-6-2-2-1h-7l1-4-1-4 7-7zM1464 722.436l1 4-12 41-9 29-6 18-7 10-8 8-12 6-4-1 13-8 10-10 7-12 12-36 14-46z"/><path fill="#eff1f4" d="m1091 594.436 7 2 3 3 3 1-2 9-3 5-1-2-9-1-5-4-4-1 1-4 4-5z"/><path fill="#fafafa" d="m1169 394.436 7 1 7 4-1 9 1 5-8 1-9-4-2-1v-6l4-8zM670 202.436l18 6h4l-1 3 4 1v3l-6-1-5 8-4-1-11-14z"/><path fill="#5f5c5b" d="m952 116.436 6 2 12 7 12 11 6 10 3 11v4h-2l-1 3-1-2-2 1-1-2-2-14-5-10-10-10-15-9z"/><path fill="#fafafa" d="m984 172.436 1 3-7 14-11 12-9 10h-6v-3l14-14 7-8 8-10zM679 186.436l5 1 13 5 4-1v3l4 2v2h-7l-5 8-5-3-10-13z"/><path fill="#f6f6f7" d="m318 395.436 4 1 5 4 3 1-1 3-5 5-5 3-1 2h-2v-2l-5-1-5-3v-2l5-5 4-3h2z"/><path fill="#5a5752" d="M349 265.436h2l-2 4-7 7-8 7-14 12-14 13-8 7-11 10-11 9-7 7-2-1 10-10 7-6h2l1-3 8-7 13-12 14-12 11-11 8-7z"/><path fill="#666468" d="m977 221.436 6 2 92 39v1h-6l-20-9-43-18-28-12z"/><path fill="#676567" d="m1236 333.436 7 1 85 36 1 3-9-3-65-28-19-8z"/><path fill="#635f61" d="m872 81.436 7 1 35 16 38 17-1 2-9-3-7-3v-2l-6-1-57-26z"/><path fill="#c1c5d2" d="m1491 633.436 3 3-4 16-4 13-3 1-14 46-1-4 17-56z"/><path fill="#71798f" d="m619 545.436 6 1-4 2-33 33-8 7-7 6 2-5z"/><path fill="#fafafa" d="m654 230.436 2 1-2 6-2 4 5 2 2 1v-5l3-3 7-1 6 3 2 2v7l-4 4h-7v-3l7-2v-5l-3-2h-6l-2 5v4l-7-2-7-4 1-5zM618 293.436h7l5 4 6 12 5-8h3l-2 6-5 8-3-1-8-16-2-1h-6l-1 4 2 5h-3l-3-4 1-6z"/><path fill="#0b0b0c" d="m129 716.436 11 6 12 9 10 7 5 6v2l-5-2-17-12-12-9-4-5z"/><path fill="#5d5d5d" d="m1510 461.436 4 2 7 10 5 11 3 11v12l-2 2-4 16-1-4 2-8v-21l-4-13-6-11-4-5z"/><path fill="#626264" d="m648 558.436 4 1-4 2-7 8-23 23-7 8-5 4v-3l8-8 4-6 20-20 8-7z"/><path fill="#5f6064" d="m1447 423.436 7 1 27 12 11 7 13 10 7 7-3 1-8-8-14-10-9-5v-2l-6-1-25-11z"/><path fill="#805750" d="m877 179.436 6 1 11 5 47 20 9 4 3 3-10-3-53-23-12-5z"/><path fill="#675b56" d="M972 198.436h1l-1 11-3 9-7-1-9-4 3-1 4-1z"/><path fill="#5e5c5d" d="m13 558.436 1 3-3 7-4 10-2 8-1 10-2-2v13H1l-1-5v-15l3-12 7-13z"/><path fill="#5b5b60" d="m1436 805.436 1 4-7 11-11 11-10 6 9-3 5-2-5 5-14 5h-10l1-2 6-1v-2l12-5 10-8 7-8z"/><path fill="#fafafa" d="m590 339.436 6 4 9 10 5 6v3l-4-2-15-16-6 10-3-1 6-12z"/><path fill="#5d5956" d="m631 11.436 4 1-9 9-5 6-8 7-10 9-12 11-8 7-4 2 6-7 7-7 8-7 10-9 16-15 4-5-3-1z"/><path fill="#2f5ca5" d="m652 322.436 6 1 12 5-2 6-5 1-10-3v-2h-2v-2l7-1v-2l-5-1z"/><path fill="#fafafa" d="m627 275.436 4 1 12 12 5 6-1 3-7-6-10-11-2-1-2 5-3 5-3-1 6-12zM663 214.436l5 3 15 15v4h-2l-7-8-9-9-6 9-3-1 2-5z"/><path fill="#6a5d58" d="m1306 820.436 7 1 10 4 1 3-2 4-7-1-8-6z"/><path fill="#777689" d="M528 648.436v3l-9 9-7 8-9 10-10 9-6 6-2-1 12-12 12-13z"/><path fill="#6e717e" d="m695 2.436 7 1 20 8 27 12-3 1-9-3v-2l-7-1-25-11-10-3z"/><path fill="#7a849f" d="M1483 665.436h2l-2 10-9 30h-3l2-9 9-30z"/><path fill="#7b8091" d="m819 56.436 5 1 37 17 14 6-4 1-17-6-7-4v-2l-9-3-19-9z"/><path fill="#625954" d="m546 150.436 1 3-11 18-9 14-2-3 10-16 4-9 4-5z"/><path fill="#2256a5" d="M590 366.436h7l3 3v5l-2 2h-8l-3-3 1-6z"/><path fill="#5b5752" d="m536 162.436 1 2-7 12-4 7-1 5-8 13-2-4 6-12z"/><path fill="#d5ddea" d="m645 335.436 15 1 5 1v2h-6l-2 5 3 4h-3l-12-11z"/><path fill="#d9dde7" d="m152 548.436 5 2v2l5 1v2l5 1-1 4-4 3 2-4h-3l-3 2v-3h-3l2-3-4 2-3-1-2-1 1-5z"/><path fill="#68676a" d="m1188 311.436 16 6 35 15v1l-8-1-23-10-19-8z"/><path fill="#fafafa" d="m569 374.436 4 2 8 6 11 4 10 2v2h-11l-13-5-9-8z"/><path fill="#615f61" d="m1072 263.436 7 1 40 17 5 2-1 2-9-3-42-18z"/><path fill="#2a5aa5" d="m639 263.436 7 1 2 3-1 5-6 2-5-3-1-4z"/><path fill="#7d7e97" d="m574 601.436 2 1-7 7-7 8-8 7-11 12-10 10-2-1 14-14 7-8z"/><path fill="#6b6466" d="m388 780.436 3 1-9 11-3 4 2 1-1 3-7 1 2-4 1-3-6 4-2-1 13-10z"/><path fill="#849ec7" d="m1313 694.436 6 2 5 3-2 1-4-2v2l5 2-2 1 1 3-1 3-3 1-5-3 1-5h2v-2l-4-1z"/><path fill="#2a5aa5" d="m613 332.436 6 1 1 1-1 7-3 2-6-1-1-1 1-7z"/><path fill="#fafafa" d="M602 318.436h12l12 5 9 8v2l-4-1-7-6-14-5-8-1zM684 269.436h5v2l-5 1-1 4 4 4h8l1-5-3-2-1 3h-2l2-5 5 1 2 3-1 6-2 2h-9l-6-4-1-1 1-7z"/><path fill="#605753" d="m513 202.436 1 4-12 19-5 8-3-1 1-3h2l2-6 11-18z"/><path fill="#7883a1" d="m985 174.436 1 3-7 14-13 14-7 8-6-1v-1l6-2 12-13 8-10z"/><path fill="#7e8498" d="M1496 616.436h4l-4 16-2 4h-4v-7l2-7h3z"/><path fill="#d6ddea" d="M688 260.436h9l9 1 2 2-2 1-5-1-1 6 2 1-1 3-13-11zM663 315.436l7 1 6 3-4 7h-5l-1-1v-6l1-2-4 2-1 4-2-2 1-4z"/><path fill="#69676a" d="m914 99.436 5 1 33 15-1 2-9-3-7-3v-2l-6-1-15-7z"/><path fill="#d0dae9" d="M460 359.436h6l5 3 1 5-2 2-4-1 3-3-1-2-3 4-7-1v-5z"/><path fill="#d2dbe9" d="m677 290.436 6 1 6 3-2 6-5 1-2-1 1-8-3 1-1 5-2-1v-5z"/><path fill="#fafafa" d="m1307 716.436 7 1 2 2v6l-4 1-8-4 2-5z"/><path fill="#8c95af" d="m1471 705.436 2 1-2 9-4 14h-3l1-14h2v-3h2l1-6z"/><path fill="#696769" d="m1411 406.436 13 5 26 11v1h-6l-27-12-6-3z"/><path fill="#77809b" d="M974 183.436v3l-16 17-7 7-2-1 2-4 9-9 8-7z"/><path fill="#b7c5dd" d="m1200 418.436 1 2 4-1 2 2-1 4-2 5-3 1-4-2-1-3 4-2-1-5z"/><path fill="#5f5857" d="m1525 490.436 3 1 1 4v12l-2 2-4 16-1-4 2-8z"/><path fill="#dce2ed" d="m468 346.436 11 2 2 4-4 1-2 3-4-2-4-6z"/><path fill="#2759a5" d="m602 327.436 5 2v5l-3 3-5-1-2-2 1-4z"/><path fill="#76819d" d="m1421 832.436 2 1-7 5-12 4h-10l1-2 6-1v-2h10z"/><path fill="#b0c1da" d="M332 668.436h5l1 4h5l2 3-2 1-1-2h-4v3l3 2-5-1-1-3-5-1 1-5z"/><path fill="#fafafa" d="m140 538.436 5 1 1 4-4 4h-6l-2-3z"/><path fill="#484745" d="m1407 842.436 4 1-12 5-8 2h-6l3-3 4-2z"/><path fill="#5c5a5c" d="m1297 359.436 7 1 24 10 1 3-9-3-23-10z"/><path fill="#d6dde8" d="m1119 620.436 6 2 2 1v2h-2v2l-7-2v3l5 1 1 2-8-2 6 6-6-2-1-5 4-6z"/><path fill="#645a55" d="m1397 838.436 4 1-6 2h9l6-1-3 3h-22l-8-1v-1l15-2z"/><path fill="#2d5ca5" d="m673 206.436 13 5-2 5-1 2-3-1-7-9z"/><path fill="#2e5ca5" d="m682 190.436 5 1 8 4-2 6h-3l-8-10z"/><path fill="#828ca8" d="m654 1.436 4 1-11 6-9 1-4-1 16-6z"/><path fill="#e8ebf1" d="m1127 591.436 5 1 6 3-3 1 1 4h-6l5 2-3 1-8-4v-1l8-1z"/><path fill="#fafafa" d="m669 305.436 6 1 6 3v2l-12-4v4l8 4v2l-9-3-3-3 2-5z"/><path fill="#484745" d="m661 1.436 4 1 3 2 12 2v1h-21v-5z"/><path fill="#5f5d5d" d="M601 605.436h3l-2 4-12 12-2-1v-2l10-10z"/><path fill="#606164" d="m977 221.436 6 2 21 9v3l-26-11z"/><path fill="#c5d1e4" d="m1108 640.436 5 1v2h5v2h-5l3 3-1 2-9-4 1-5z"/><path fill="#605753" d="m460 286.436 1 3-14 22-2 1 2-6 8-13z"/><path fill="#524e4b" d="M429 737.436h2l-2 4-8 7-7 8-7 6 2-4 7-7 7-8z"/><path fill="#9e7381" d="m611 563.436 2 1-7 8-4 4h-2l-2 4-7 7-2-1 16-17z"/><path fill="#dde1ea" d="M684 26.436h7l1 3-3 4-6 1-3-3h3v-3z"/><path fill="#b2c3dc" d="m1121 604.436 6 2 5 2-2 6-5-1-2-2 1-5-3-1z"/><path fill="#706d77" d="M588 576.436h3l-2 4-10 9-6 5 2-5z"/><path fill="#c3cfe2" d="m495 543.436 6 1v3l-5 5-5-1 1-3h1l1-4z"/><path fill="#b8c7df" d="m1207 400.436 7 2 2 2-1 5-9-4z"/><path fill="#f3f4f6" d="m465 520.436 1 3-2 4 9-3-6 7-2 1v-3l-3 1-1-2v-2l-3 2 2-4z"/><path fill="#aebed9" d="m352 680.436 5 1-1 5-5 2-5-1z"/><path fill="#c7d2e4" d="m1389 482.436 6 1 3 8-9-3-1-5z"/><path fill="#69686c" d="m1329 371.436 13 5 12 5v1l-8-1-16-7z"/><path fill="#77809c" d="m1437 816.436 1 2-7 11-3 2-5 1 6-7z"/><path fill="#eaebef" d="M312 429.436h2l-2 6 5-2 3 1-7 6v-3l-4 1v-3h-3z"/><path fill="#5b5a5d" d="m1236 333.436 7 1 19 8-1 2-6-2-19-8z"/><path fill="#92a9cd" d="m152 548.436 5 2-1 4-6 2-2-1 1-5z"/><path fill="#5c5652" d="m928 200.436 16 6 8 4 1 2-10-3-16-7z"/><path fill="#5b5752" d="m601 41.436 1 3-20 18h-3l13-13 8-7z"/><path fill="#737783" d="m695 2.436 7 1 18 7v1h-6l-15-6-4-1z"/><path fill="#fafafa" d="m599 138.436 2 2-6 5-1 7h-3v-8l5-5z"/><path fill="#a4a8b4" d="m612 115.436 6 1 3 3-2 3-6-1-2-1z"/><path fill="#65656a" d="m795 47.436 6 1 4 2 8 2 6 3-3 1-8-2-13-6z"/><path fill="#6c686f" d="m549 616.436 3 1-16 16-1-3z"/><path fill="#fafafa" d="m584 156.436 13 5-1 3-5-1-8-4z"/><path fill="#6a6768" d="m872 81.436 7 1 16 7v1h-6l-17-8z"/><path fill="#605f5f" d="m1447 423.436 7 1 14 6 1 3-6-2-16-7z"/><path fill="#fafafa" d="m1192 429.436 5 1 2 2v2l2 3-4 1 3 3-9-3-1-3h7z"/><path fill="#becade" d="m301 425.436 5 1 2-1-2 4-3 3-5-1-1-2z"/><path fill="#fafafa" d="m656 327.436 1 3 9 2h2l-1 3-6-1-8-2v-2h-2v-2z"/><path fill="#6a696d" d="m1188 311.436 16 6 7 3v1h-6l-16-7z"/><path fill="#6d6b6f" d="m952 116.436 6 2 12 7 1 2-7-2-12-7z"/><path fill="#edeef2" d="M700 32.436h4l-2 4-2 3-4 1v-3l-3-1 1-2z"/><path fill="#6d6f7a" d="m746 24.436 7 1 13 6v2l2 1-5-1-6-3v-2l-7-1z"/><path fill="#c3cee0" d="m1321 682.436 5 1 2 1-1 5-6-1-1-5z"/><path fill="#fafafa" d="M672 298.436h2v3l9 2 2 1-2 2-5-1-6-2h-2v-2l-3-1v-1z"/><path fill="#616064" d="m1102 274.436 22 9-1 2-9-3-12-6z"/><path fill="#c3cfe2" d="m1313 694.436 6 2 5 3-2 1-4-2v2l5 2-2 1-9-4z"/><path fill="#dde4ed" d="M330 662.436h2l-1 5-3 5-2-4h-5l3-3z"/><path fill="#676668" d="m1469 431.436 12 5 8 5-4 1-7-4v-2l-6-1-3-2z"/><path fill="#2e5ca5" d="m1308 717.436 6 2 1 4-4 1-5-3z"/><path fill="#4b4947" d="M4 586.436h1l1 13H5l-1 5H2l-1-3v-9l2 2z"/><path fill="#625e61" d="m503 218.436 1 4-7 11-3-1 1-3h2l2-6z"/><path fill="#dce2ed" d="m1312 709.436 4 1-1 5 2-2 1-2 1 4-4 2-4-2-1-4z"/><path fill="#cad4e4" d="M145 545.436h5l-1 5h-2v2l-4-1v-4z"/><path fill="#e6e9ef" d="m1377 508.436 11 1v2h-3l-1 3h2v2l-4-2-5-4z"/><path fill="#6c6a6d" d="m1411 406.436 13 5 7 3v1l-7-1-12-5z"/><path fill="#e2e7ee" d="m1113 634.436 5 1-1 4 2 1 1-4 1 3-1 2-7-1-1-5z"/><path fill="#615854" d="m472 267.436 1 3-9 14-2-2z"/><path fill="#7b7f90" d="m423 190.436 2 1-8 9-5 3-4 2 6-7z"/><path fill="#7b8091" d="m786 41.436 5 1 17 8-3 1-6-3-9-3-2-1v-2z"/><path fill="#6a5d58" d="m341 814.436 5 1-4 4h-7v-3z"/><path fill="#fafafa" d="m903 125.436 10 2 4 4v2h-3l-4-4-9-2z"/><path fill="#837483" d="M952 199.436h2l-1 4-7 7-2-1 2-4z"/><path fill="#645955" d="m522 188.436 1 3-6 10-2-4 6-8z"/><path fill="#fafafa" d="m894 119.436 3 1-4 6-2 2-4-1 6-7z"/><path fill="#dbe1eb" d="m345 676.436 5 1 1 2-1 2-5-1-1 2 3 1-5-1 1-4z"/><path fill="#b9becd" d="m1491 633.436 3 3-1 6-3 1-2 6-1-4z"/><path fill="#dbe1eb" d="m1134 585.436 3 1-1 5 2-2 1-2 1 4-4 2-4-3v-4z"/><path fill="#dde2eb" d="m472 528.436 4 1 1 2-1 2h-5l2 2-5-1 2-5z"/><path fill="#fafafa" d="m652 322.436 6 1 12 5v2l-5-1-12-5z"/><path fill="#7883a1" d="m626 547.436 2 1-2 4-7 6-3 3-2-1 11-11z"/><path fill="#fafafa" d="m472 339.436 5 1 8 4-4 1-7-3-1 3-1-1z"/><path fill="#615853" d="m533 171.436 1 3-7 11-2-3 7-10z"/><path fill="#fafafa" d="m584 162.436 5 1 5 2-1 3-5-1-5-2z"/><path fill="#6a7aa4" d="m523 113.436 2 1-12 12-4 2 2-4z"/><path fill="#5d5853" d="M615 28.436h2l-2 4-12 11v-3z"/><path fill="#e2e7ef" d="m169 559.436 4 2-2 4h-2l-1 2-3-1 1-5z"/><path fill="#dae0ea" d="m490 539.436 4 1v3l-3 3-5-1 1-4h5z"/><path fill="#e3e8f0" d="m1386 489.436 5 1-1 4h2v-3h2v4l-3 1-5-3z"/><path fill="#5b71a8" d="m304 308.436 2 1-6 7-8 6h-3z"/><path fill="#fafafa" d="m600 142.436 3 1-3 3-1 5-4-1 1-5z"/><path fill="#dde3ec" d="m503 547.436 4 1v4l-4-1-2-1 1 2 3 2-5-1 1-5z"/><path fill="#e8ecf2" d="m278 411.436 4 1-1 4-4-1 2 3-5-1 1-4z"/><path fill="#8f97ae" d="m529 96.436 2 1-9 9-6 5-2-1 7-7z"/><path fill="#e1e6ef" d="m1210 394.436 4 2-1 3h2l1-3-1 5-6-2v-4z"/><path fill="#fafafa" d="m658 252.436 3 1-4 8h-3l1-4z"/><path fill="#e7ebf1" d="m319 436.436 4 1 1 2-1 2-5-1 2 3-4-1v-3z"/><path fill="#5b5752" d="m658 1.436 3 1h-2v5l3 1h-8l1-4z"/><path fill="#2c5ba5" d="m142 539.436 2 1-1 4-5 2-2-2z"/><path fill="#d8dfeb" d="m1204 407.436 6 1 1 5-2 1-3-3 1-3h-2v3h-2z"/><path fill="#676669" d="m1058 257.436 7 1 10 4v1h-6l-11-5z"/><path fill="#6b7ba4" d="m467 163.436 3 1-7 6-1 2-5 1 5-6z"/><path fill="#fafafa" d="M887 119.436h3l-1 4-3 3-4-1z"/><path fill="#757680" d="m914 99.436 5 1 9 4v1h-6l-8-4z"/><path fill="#fafafa" d="m1318 689.436 6 1 2 1-1 2-5-2v2l5 3-2 1-6-3z"/><path fill="#797f94" d="M1483 665.436h2l-2 10h-3l2-9z"/><path fill="#78777b" d="m861 75.436 5 1 9 4-4 1-10-4z"/><path fill="#3c63a5" d="m344 679.436 6 2v-2l4 1-8 6v-2l-2-1z"/><path fill="#7883a1" d="m611 563.436 2 1-7 8-4 3v-3z"/><path fill="#5f5d5f" d="M1397 402.436h6l8 4v2l-9-3-5-2z"/><path fill="#625854" d="m556 134.436 1 4-4 6-2-3 1-5z"/><path fill="#484745" d="M1361 861.436h1v6l-6-1-1-2z"/><path fill="#7c87a4" d="m620 545.436 5 1-4 2-7 6v-3z"/><path fill="#555" d="m1510 461.436 4 2 4 5v3l-3-1-5-7z"/><path fill="#626063" d="m1351 382.436 7 1 7 3-1 2-6-2-7-3z"/><path fill="#635955" d="m460 286.436 1 3-6 9-2-2z"/><path fill="#58524e" d="m588 94.436 2 1-12 11-1-3z"/><path fill="#828798" d="m734 17.436 13 5 2 2-10-2-2-1v-2h-3z"/><path fill="#7b849e" d="M1464 729.436h2l-2 10h-3l2-9z"/><path fill="#aab0c3" d="M1496 616.436h4l-1 6-3 1-2 2z"/><path fill="#6a686f" d="m580 584.436 3 1-9 9-1-2z"/><path fill="#dee4ec" d="m478 532.436 4 1 1 2h-3l-1 4-5-2 3-2z"/><path fill="#fafafa" d="m1383 501.436 2 1-1 3 3 1 2-3 1 4-1 1h-5l-3-3z"/><path fill="#615853" d="m486 245.436 1 4-4 6-2-4z"/><path fill="#fafafa" d="M902 129.436h7l4 3v2l-4-1-7-3z"/></svg>
