<svg xmlns="http://www.w3.org/2000/svg" width="1680" height="787"><path fill="#181818" d="M349 0h990l11 4 9 7 6 10 2 6 1 663-2 12-4 5-2 1 112 1 6 2 1 1-1 41-3 9-6 7-8 4-3 1H231l-10-4-7-8-3-7-1-28-1-13 3-4 4-1 113-1-6-5-2-7V30l3-10 6-9 7-6z"/><path fill="#f3c5ab" d="M838 35h1v218h9l16 4 18 4 34 7 41 9 22 5h12l14-2 2-1-9-27v-2l43-15h3l17 48 22 63 17 48 22 63v3l-44 15-5 1-13-39-5 5-11 10-12 9-7 2-1 4 5 14v15l-4 10-7 9-6 4-15-4-16-7-3-1-13 12 1 3v19l-5 13-8 7-6 3h-11l-12-3-9-4-5 2 11 6 1 6-5 13-6 5-9 3h-11l-14-5-10-5-11-9h-5v2l14 11v7l-3 7-13 5h-9l-1 69h-1l-1-70-17-11-8 1-10-11-4-4-6-3 6 9 9 10v2l-8 4-7 2h-16l-5-3-6-8-7-6-10-5-19-5-6-5-5-7-1-3-1-15-11 8h-7l-11-4-9-6-2-6-1-8v-13l-8 3h-12l-13-5-3-3-1-4v-15l-9-3h-7l-1-9-9 27-3 1-36-12-9-4-1-4 12-36 17-48 22-63 17-48 9-26 8 1 39 13-3 11-6 17 12 1h22l10-3 7-4 7-11 9-9 12-5 27-8 13-5 21-10 7-2 13-1z"/><path fill="#c55339" d="M356 35h482v218l-17 3-16 7-15 7-29 9-12 4-6 4-9 10-5 8-12 6-5 1h-22l-10-1-2-1 3-11 6-17-9-2-37-12 3-11 2-4-11-3-111-39-48-17-31-11-29-10-54-19-6-3z"/><path fill="#2084bf" d="M1330 409h3v265H839v-70h10l13-5 2-6v-7l-10-8-5-5 7-1 14 11 17 7 4 1h11l11-4 4-5 4-11-1-6-11-6 2-2 5-1 11 5 9 2h11l10-6 4-5 4-11v-19l-1-3 7-7 8-6 15 7 17 5 6-3 7-9 4-10v-15l-5-14 1-4 3-2 7-2 14-12 9-8 3-3 4 10 10 29 45-15h4l6 17v2l36-12 48-17 114-40zM839 35h494v77l-11 5-79 32-48 17-154 54h-2l4 12v3l-19 7-24 8h-2l10 30-17 3h-12l-31-7-55-12-25-5-14-4-15-2z"/><path fill="#c55339" d="m357 444 7 1 63 22 108 38 17 6h3l7-21 3 3 20 7 24 8h2l10-30h1l1 11h6l9 4 1 15 2 5 8 4 6 2h12l5-2h3l2 21 2 6 10 6 9 3h7l9-7h2l1 2 1 13 4 7 5 6 26 8 10 7 8 9 2 3 3 1h16l15-5-9-11-7-9 1-2 9 5 11 13 8-1 18 12v70H356V446Z"/><path fill="#007789" d="M202 737h9l1 18 5 10 6 5 8 3h1227l9-4 5-4 4-8 1-4 1-15h22l75 4 53 4 33 4 16 4 3 2v2l-10 4-26 4-42 4-62 4-90 4-128 4-153 3-76 1-124 1H707l-117-1-138-2-93-2-102-3-98-4-70-4-48-4-28-4-13-4v-4l13-4 29-4 31-3 86-5z"/><path fill="#fefcfc" d="m640 268 8 1 39 13-3 11-5 15-3 8-44 132-10 28-5 17-5 15-3 1-36-12-9-4-1-4 12-36 17-48 22-63 17-48z"/><path fill="#fefdfd" d="M1041 235h3l17 48 22 63 17 48 22 63v3l-44 15-5 1-34-101-41-123v-2z"/><path fill="#a29797" d="M686 709h317l-1 6-4 5-2 1H693l-6-5z"/><path fill="#f2a073" d="M813 319h9l16 4 21 11 37 25 31 21 20 14 19 13 23 14 12 10 7 8 19 19v2l2 1-5 3-2 2-6-9-11-12-10-9-10-7-17-11-57-38-22-13-20-12-22-15-14-7-15-5h-12l-9 2-18 8-42 23-25 10-6 2h-8l-9-3-5-5-4-5-1-5v-7l3-6 7-7 15-10 7-5 7 1-6 7-17 11-8 7-1 2v8l3 5 5 4 3 1h9l21-8 16-8 24-13 17-9 16-6z"/><path fill="#f3a173" d="m656 488 11 7 8 7h2l5-5 8-4 9-2 10 1 8 5 7 8 5 11 7-2h12l10 5 6 7 5 11v16l-3 6 21 1 4 6 9 12-2 1-7-3-6-5-9-4-8-2-12-1 6-12 1-10-4-11-4-6-7-4h-12l-9 4h-2l-5-13-6-9-6-4-3-1h-7l-12 4-5 6-4 4-11-9-10-8z"/><path fill="#f2a073" d="m908 458 4 1 18 10 16 11 11 9 16 13 5 3-2 4-11 10-4-4-9-14-13-12-8-5-12-7-15-11-1-4 3-1z"/><path fill="#a29797" d="M261 738h79l2 2-1 4-4 2h-74l-4-3 1-4z"/><path fill="#a09696" d="M1325 729h11l6 5 2 9-3 7-6 4h-9l-6-4-3-6 1-8 5-6z"/><path fill="#a19696" d="M1411 729h10l5 3 3 6v7l-3 5-5 4h-10l-7-6-1-2v-9l3-5zM1368 729h10l6 4 2 4v9l-3 5-5 3h-10l-6-5-2-4v-7l4-6z"/><path fill="#f2a073" d="m859 509 9 5 13 11 15 15 8 7 11 8v2l-7 2-11-10-8-7-13-13-14-11-5-3 1-5z"/><path fill="#f1a073" d="m813 549 13 1 8 4 18 14 4 4-8 2v-2l-4-2-16-12-7-2-8-1z"/><path fill="#c55339" d="M662 8h6l5 3 2 7-3 6-3 2h-7l-5-4-1-7 3-5zM759 559l6 2 6 3-3 1-12-1z"/></svg>
