<svg xmlns="http://www.w3.org/2000/svg" width="190" height="197.75" viewBox="0 0 760 791"><path fill="#dbdddc" d="M229 0h353l7 3 4 6 1 3 1 96 1 2v118l-1 1v227l-1 214-1 4h-2l-1 4-5 3-5 1H280l-2 7-4 9-2 7-5 15-5 9-3 7-9 11-11 9-13 11-12 9-18 13-2 2h-14l-5-3-31-10-21-7-36-9-22-4-16-2H35l-13 3h-3v-14l2-18 3-30 4-24 5-27 5-31 1-11 7-35 3-6 8-9 7-5h2v-2l5-3h4v-2l5-3 6-1 1-3 6-1v-2l5-1 1-3h4l1-3h4l2-4 13-10 10-9 8-7 2-3-2-3 9-3 11-8 3-1h18l2-5h2l-1-4 2-3 1 10v3l6-1 10-15 6-11 6-9 1-430 3-6 6-5z"/><path fill="#fad6bf" d="M229 0h353l7 3 4 6 1 3 1 96 1 2v118l-1 1v227l-1 214-1 4h-2l-1 4-5 3-5 1H280l-2 7-4 9-2 7-5 15-5 9-3 7-9 11-11 9-13 11-12 9-18 13-2 2h-14l-5-3-31-10-21-7-36-9-22-4-16-2H35l-13 3h-3v-14l2-18 3-30 4-24 5-27 5-31 1-11 7-35 3-6 8-9 7-5h2v-2l5-3h4v-2l5-3 6-1 1-3 6-1v-2l5-1 1-3h4l1-3h4l2-4 13-10 10-9 8-7 2-3-2-3 9-3 11-8 3-1h18l2-5h2l-1-4 2-3 1 10v3l6-1 10-15 6-11 5-7 6-4 2-9 3-1 2-5 8-13 11-18 6-10 7-4 6-8 5-5h9v5l-4 2-6 12-1 7 1 2 16-1-1 10-10 26-10 23-11 29-9 24-7 18-6 16-8 22-1 1v47l7-2 17-2 9-16 6-19 7-28 9-21 6-9 4-2h6l1 2-1 28h6l2 6 2 45 1 2-1 3-2 25-4 9-10 30h156v1l-157 1-2 7 1 2 3-3 12-2h123l22 1 7 2 21 1 3 2h101l6-2 2-4 2-5V94H223l-1 1-1 343-4 2V12l3-6 6-5z"/><path fill="#68e4b4" d="M270 171h240l2 1v189l-1 1h-56l-104-1-9-1-3 2h-64l-12-3-5-5V180l2-6 4-2z"/><path fill="#28a27a" d="M229 0h353l7 3 4 6 1 3 1 96 1 2v118l-1 1v227l-1 214-1 4h-2l-1 4-5 3-5 1H280l-1 2 1-6 3-5h295l6-2 2-4 2-5V94H223l-1 1-1 343-4 2V12l3-6 6-5z"/><path fill="#f7f7f7" d="M280 682h47l233 1v1l-12 1-1 3v53l2 8 5 1 2 4v37H194l5-5 16-12 13-10 11-9 9-8h2l2-4 7-8 5-12 3-6 4-12 2-7 5-10z"/><path fill="#cee4fa" d="M670 569h1l1 25 4 9v2l4 2 7 4 7 10 10 16 9 17 4 10 3 7 1 9-3 1v2l-4 1v2h-5l-2 3 5-1 8 16 13 27 26 56 1 4H556l-1-37-1-3-5-2-3-9v-52l2-4-221-1v-1l253-1 9-3 2-4h2l1-18 1-47h1l1 31 9-1 19-10 12-7 5-4 3-1 1-2 5-3 5-6 8-7 3-4h3z"/><path fill="#f9d5bf" d="M594 229h1l1 26 1 2h11l6 26 5 16 9 24 7 26 8 37 6 26 6 20 9 1 2 3 1 17 1 57 2 33v52l-4 2-7 8-10 10h-3l-1 3-7 4-8 5-24 13-6 1-3-1-1-3-1 19h-1z"/><path fill="#03c5e0" d="m595 682 5 5 1 3h2l9 11 5 5v2l3 1 8 10 8 9 10-3 16-8 17-9 17-11 9-6h2v-2l5-1 8 16 13 27 26 56 1 4H556v-41l19-4 24-7v-13l-4-38z"/><path fill="#f6f6f6" d="M273 159h99l100 1h33l14 1 1 1 1 7v207l-3 7-1 1H288l-1 6-4 4-9 2-5-1-1-4 3-9 5-8 3-2 1-5-9 1-12 12h-7l-1-1-1-126v-60l1-23 4-9 1-1zm-3 12-9 2-2 2-1 5v174l5 5 12 3h64l4-2 8 1 110 1h50l1-1V172l-2-1z"/><path fill="#0b0d0f" d="M229 0h353l7 3 4 6 1 3 1 96 1 2v118l-1 1v227l-1 214-1 4h-2l-1 4-5 3-5 1H280l-1 2 1-6 3-5h295l6-2 2-4 2-5V28l-1-14-4-3-7-2-5 1h-24l-1-1h-74l-4 5H339l-2-6-54 1h-51l-8 5-2 9-1 415-4 2V12l3-6 6-5z"/><path fill="#f6f6f6" d="M310 621h185l25 1 5 2 4 8v15l-3 10-3 3-12 1H288l3-11 8-25 3-3z"/><path fill="#b66132" d="m351 257 5 2 5 4 1 5h-2l-1 5v7l2 5v3l12 1 2-11 2-1 6 3h7l1 2-1 9 5 2 4 1 5-5 4-6 1-11 2-2 7 1 6 12 3 10 3 11-1 3-9 1-1 1 1 15 9-2 1-2 4 2 2 10h23l2-4v-4h-22l-3-1 1-4 8-8 7-1 6 3 3 3 1 4 7 3 5 6v2h2l1 6-6 9-11 10-10 5h-99l-12-2v-2l-6-2-15-8-12-11-1-5 6-8 3-1h9l11 7 12 1v-2l6-3h12v-2h-9l-2-1-3-9-8-3v-2l-4-2-1-2v-10l4-14 2-6h2l1-7z"/><path fill="#babdbc" d="M303 607h50l236 1v54l-2 5-5 5-4 2H412v-1l56-1-16-1-7-2-29-1H298l-9 1-1 3-4-1 1-5 2-4 157-1 67-1 14-1 3-12v-15l-3-6v-2l-5-1-25-1H301l1-13z"/><path fill="#69e5b5" d="M356 470h170l33 1 4 3v19l-1 12-1 1H360l-11-1-2-2v-18l2-9 3-5z"/><path fill="#f8d5bf" d="m387 189 10 1 6 4 5 7 1 7 1 44 3 4v2l4 2 4 7 1 4h2l2 4v7l1 2 5 1h11l2-13v-23l1-1h5l3 4 4 14-1 18 7 2 3 4 1 6v26l-6-1-1-5-3-1-3-3-5-1-6 2-7 7-1 3h25l1 5-5 5h-21l-2-4-1-7-3-2-1 3-2 1h-7l-2-9v-6l2-2 9-1-2-11-3-7-3-9-3-7-7-1-1 1-1 11-7 10-4 2-8-4-1-3 1-7h-7l-7-3-2 9-3 3-8-1-2-1-3-8v-7l3-6-2-5-8-5 1-5 9-11 3-7 1-5 1-20 4-12 9-6z"/><path fill="#68e4b4" d="M432 428h136l2 1-1 7-3 8-3 17-3 2-9 1H391l-10-1-4-3-2-7v-13l3-7 4-4z"/><path fill="#f8f8f8" d="M239 111h122l67 1 5 4 2 6v15l-3 8-11 2H274l-20-1-4-4-7-24v-2h-2v-2h-2z"/><path fill="#0a090d" d="M229 0h353l7 3 4 6 1 3v92h-1l-1-42-2 4-1-28-2-24-4-3-7-2-5 1h-24l-1-1h-74l-4 5H339l-2-6-54 1h-51l-8 5-2 9-1 415-4 2V12l3-6 6-5z"/><path fill="#68e4b4" d="M482 512h25l47 1 7 1 1 1v22l-3 9-14 1h-90l-31-1-7-2-1-5 1-21 2-4 3-1z"/><path fill="#f7f7f7" d="M313 556h26l88 2 5 5 3 5v17l-4 7-79 1h-48l-1-1v-35z"/><path fill="#cfe4fb" d="M18 753h1v6l16-4h14l23 3 23 5 28 7 24 8 31 10 2 3H0l2-6 9-16 6-7z"/><path fill="#078c8c" d="m351 257 5 2 5 4 1 5h-2l-1 5v7l2 5v3l12 1 2-11 2-1 6 3h7l1 2-1 9 5 2 4 1 5-5 4-6 1-11 2-2 7 1 6 12 3 10 3 11-1 3-9 1-1 1 1 13-13 1-40 1-11-1-3-1-3-9-8-3v-2l-4-2-1-2v-10l4-14 2-6h2l1-7z"/><path fill="#078e8e" d="m595 682 5 5 1 3h2l9 11 5 5v2l3 1 8 10 8 9 10-3 16-8 17-9 17-11 9-6h2v-2l5-1-2 4-8 5-17 14-5 5-11 10-19 13-11 7-5-1-11-7-8-6-1 21-1 2-13 2-10 1h-16l-15-1-2 1-1-2v-6l19-4 24-7v-13l-4-38z"/><path fill="#0d1a19" d="M592 27h1l1 77 2 6v118l-1 1v227l-1 14h-1l-1-16v-25l-1-1-1-33h-1V38h1l1 24z"/><path fill="#ecb391" d="M446 248h5l3 4 4 14-1 18 7 2 3 4 1 6v26l-6-1-1-5-3-1-3-3-5-1-6 2-7 7-1 3h25l1 5-5 5h-21l-2-4-1-7-3-2-1 3-2 1h-7l-2-9v-6l2-2 9-1-2-11-3-7-3-9-3-7-6-2 2-1v-2l-5-1-2-3 3-5 3-1 5 4 4 8v2h2l2 4v7l1 2 5 1h11l2-13v-23z"/><path fill="#088e8e" d="m411 270 7 1 6 12 3 10 3 11-1 3-9 1-1 1 1 13-13 1h-21v-1l18-1-10-4-9-2h-5l-1-30 1-6 5 1h5l1 2-1 9 5 2 4 1 5-5 4-6 1-11z"/><path fill="#f1bc9c" d="M278 683h1v5l-5 10-2 7-5 15-5 9-3 7-9 11-11 9-13 11-12 9-18 13-2 2h-14l-5-3-31-10-7-2 4-1 35 6h7l9-4 9-6 13-10 14-11 21-18 10-14 9-16h2l2-6z"/><path fill="#efb897" d="M221 569h1l1 41 7-2 16-1-6 9-13 15-5 5-3 7-7 4-4-2-6-7-2-6v-10l3-14 5-12 5-9 2-1 5-16z"/><path fill="#f6f6f6" d="M270 45h9l7 3 5 5 3 6v11l-4 7-7 6-4 1h-12l-6-4-4-5-2-4V60l4-8 6-5z"/><path fill="#65e1b1" d="m558 621 9 1 5 3 5 10 1 4v10l-4 7-3 3-6 2h-13l-6-3-4-6-1-4v-11l5-12 5-3z"/><path fill="#f5d3be" d="M446 248h5l3 4 4 14-1 18 7 2 3 4 1 6v26h-3v-2h-2l-1-6h2v-5h2v-8l-4-1-3-5v-4h-7l-3 3-9 2-2 4-5 2h-3l-1 2-3-11-4-12-3-5-1-4-6-2 2-1v-2l-5-1-2-3 3-5 3-1 5 4 4 8v2h2l2 4v7l1 2 5 1h11l2-13v-23z"/><path fill="#dcdedd" d="M298 667h126l22 1 7 2 21 1 3 2H284l1-3 1 2 3-3z"/><path fill="#f2bc9b" d="M595 259h1l2 7 2 18v55l-1 37-1 8v11l1 3 3 1v31l-4 1-1 3-2-6z"/><path fill="#0a0a0d" d="M217 226h1l2 25v27l1 1v159l-4 2z"/><path fill="#f2bc9b" d="m193 480 3 1-2 6-8 12-10 16-9 10-6 1h-10l-3-3 2-4 8-7 11-11 8-7 8-6 5-5z"/><path fill="#b1bbb8" d="M221 569h1l1 41 7-2 16-1-6 9-13 15-5 5-2 6h-3v-59l2-11z"/><path fill="#4c3f2e" d="M594 259h1v197l-1 14h-1l-1-16v-25l-1-1-1-33h-1v-53l1-1 1-24h2z"/><path fill="#efb796" d="m336 307 6 1v2l9 3 2 6v3h9l2 1v2l-12 1-6 2v2h-12l-11-7-8-1 4-2 10-8z"/><path fill="#f2bc9b" d="M420 307h9v8l10-4h6l-6 7-3 5h25l1 5-5 5h-21l-2-4-1-7-3-2-1 3-2 1h-7l-2-9v-6z"/><path fill="#28a37b" d="M287 662h199v1l-22 1-44 1H288Z"/><path fill="#f8f8f8" d="M250 557h15l-1 9-6 22-2 3-4-2-3-3-5-22-6-3v-2l2-1z"/><path fill="#f1f3f2" d="M490 59h10l10 2 4 3v6l-7 4h-18l-3-3v-9l1-2z"/><path fill="#f2be9f" d="M110 523h3l-2 4-5 6-12 9-12 6-18 5-1-2 1-2h2v-2l5-3h4v-2l5-3 6-1 1-3 6-1v-2l5-1 1-3h4l1-3z"/><path fill="#efece9" d="M361 331h4v2l11-1 3 6 4 3-1 4-3 1h-30l-1-3 2-3 8-4z"/><path fill="#0c1216" d="m592 230 2 4v166h-1v-83h-2v-85z"/><path fill="#eeefee" d="M496 632h13l4 2v14l-5 2h-11l-3-2v-13z"/><path fill="#f0bc9b" d="M295 542h5l2 5 2 45 1 2-1 3h-2l-3-13-4-21-2-19z"/><path fill="#0e1d22" d="m363 9 13 1h58l22 1 5-1h9l-1 3H354v-1l9-1z"/><path fill="#dff0eb" d="M548 10h23l1 1v9l-5 2h-11l-9-1-1-1 1-9z"/><path fill="#f4d6c3" d="m336 307 6 1v2l9 3 1 4h-24l1 6 8 2 7 3v2h-10l-11-7-8-1 4-2 10-8z"/><path fill="#279e7a" d="m450 310 7 2 3 4v7l-8 1h-13l-3-1 1-4 8-8z"/><path fill="#0d0e11" d="M220 571h1v69l-1 2h-3v-59l2-11z"/><path fill="#0d1c21" d="M592 27h1l1 81h-2l-2-13-1-1V38h1l1 24z"/><path fill="#dcdedd" d="M655 433h9l2 3 1 17v55h-1l-1-34-2-18-6-19z"/><path fill="#0d1f22" d="m409 282 1 2-1 2v7l5-6 1 4-5 9-3 3h-8l-6-5-2-5 8 1 5-5 4-6z"/><path fill="#bdbebe" d="M446 248h5l3 4 4 14-1 11h-1l-1-10-8 2-1 2-1-22z"/><path fill="#dcdedd" d="M599 257h9l6 26 2 10-2-4-6-1-3-3-1-9 1-17-6-1z"/><path fill="#f8f8f8" d="m296 514 3 1 2 6 1 7v14l-8-1v-18z"/><path fill="#0e1d22" d="M217 226h1l2 25v28l-1 39h-1l-1-8z"/><path fill="#0d1b20" d="M357 282h3l1 6 11 2v6l-3 3-10-1-5-5v-6z"/><path fill="#e9f1ee" d="M420 307h9v16l-2 1h-7l-2-9v-6z"/><path fill="#e4ac89" d="m412 257 5 3 4 7 1 4h2l2 4-1 7-3-1-3-5-1-4-6-2 2-1v-2l-5-1-2-3 3-5z"/><path fill="#0a080c" d="m385 314 9 2 10 4 1 2-29 1-1-2 3-5z"/><path fill="#f9d1b9" d="M455 323h6l1 5-5 5h-21l1-7 7 1 3 2h5l1-4h2z"/><path fill="#e6f0ec" d="m285 10 3 1v9l-8 2h-15l2-4 15-6z"/><path fill="#dbe0dd" d="m409 268 4 1-3 3-1 11-7 10-4 2-8-4-1-3 1-6h2l2 7 8-3 2-2 1-9 2-6z"/><path fill="#e9efee" d="M255 12h5v8l-2 2h-16l-3-1 1-3z"/><path fill="#6ce3b6" d="m382 282 3 1v32h-5v-13l1-19z"/><path fill="#0c8783" d="m655 690 7 1 2 3-1 7-1 2h-7l-4-4v-7z"/><path fill="#f6d2bb" d="M361 331h4v2l11-1 3 7-3-1-1-5h-3l2 6-1 1h-20l5-4z"/><path fill="#28a37b" d="M496 632h13l4 2v14l-5 2h-11l-3-2v-13zm2 2-2 2v11l1 1h12l2-2v-9l-3-3z"/><path fill="#e4eae8" d="m534 60 4 1 1 9 6-3h3l-1 7-2 1h-7l-5-5-1-7z"/><path fill="#f5f6f6" d="m618 707 5 1 3 5v2h2v3l10 3 7 3v2l-9 3-7-7-11-14z"/><path fill="#f0f5f6" d="M598 734h2v5l-3 2-18 5h-8l4-3z"/><path fill="#f2f3f3" d="m557 633 4 1 1 2v13l-4 2-3-2v-10z"/><path fill="#f5e7de" d="M370 323h36l-1 3h-34z"/><path fill="#e9f0ed" d="m336 307 6 1v2l9 3 1 4-11-3-12 1-2 2-3-1 8-6z"/><path fill="#137c71" d="m709 688 3 1-4 4-6 4-12 10-6 1-5 2 1-3 15-9 10-7h2v-2z"/><path fill="#0c1317" d="m566 6 12 1-2 2-5 1h-24l-1-1-10-1V7Z"/><path fill="#bd6433" d="m442 314 1 3 5 2 7 4-3 1h-13l-3-1 1-4z"/><path fill="#e0e2e1" d="m384 204 4 1v2l7-2 1 5-9 3h-4l-1-3z"/><path fill="#efceb7" d="M439 311h6l-6 7-2 2h-7l-1 2v-7z"/><path fill="#dddddb" d="m377 259 17 6-2 4-7-1-8-3-1-5z"/><path fill="#132b2a" d="M357 282h3l1 6 6 1-4 3-7 3-2-2v-6z"/><path fill="#0d1918" d="m409 282 1 2-1 2v7l5-6 1 4-2 2-7 6-3 2 1-8-2-1 6-9z"/><path fill="#32af89" d="m376 277 4 2h-3v20l-5-1-1-9h2l2-11z"/><path fill="#f2bc9b" d="m380 200 2 4-1 4 2 9-1 2-5-1v-14z"/><path fill="#185144" d="M595 110h1v29l-1 20-2-3v-21h2z"/><path fill="#0a070b" d="m218 620 2 1v6l1 1v12l-1 2h-3v-19z"/><path fill="#e0e0df" d="M388 223h10l-1 6-5 4-1-4-3-1-1-4z"/><path fill="#cbded8" d="m232 61 5 1 4 2v3l-2 1h-10l-1-4z"/><path fill="#dcdedd" d="m186 465 2 4v9l-22 1-6 1 1-2 3-1h18l2-5h2l-1-4z"/><path fill="#69e5b5" d="m382 282 3 1v25h-1v-12l-3-1v-12z"/><path fill="#eed8ca" d="M411 329h5l1 5-5 2-7-1v-4z"/><path fill="#dcdddc" d="m384 219 1 3-3 5-5 1-2-1-1-5 3-2z"/><path fill="#0d1a1f" d="M388 315h4l1 3 2 1v2h-14l-3-3z"/><path fill="#f3d6c3" d="M466 302h2v20h-3v-2h-2l-1-6h2v-5h2z"/><path fill="#f2bc9b" d="M361 331h4v2h6l-5 4-2 2h-9l5-6z"/><path fill="#f3c1a2" d="M448 250h3l2 8v5h-4l-3-11z"/><path fill="#dfddd9" d="M271 367h9v5l-4 2-1 3-1-2 1-7-5 3-7 6 2-4z"/><path fill="#dcdedd" d="M595 609h1l1 31 5 1-4 3h-2l-1-4z"/><path fill="#28a37b" d="m371 304 3 2-1 7-2 3h-2l-1-6 2-5z"/><path fill="#f0ba98" d="M384 224h2l4 5-1 3-7-1-1-4z"/><path fill="#0b1015" d="M377 279h3v29h-1l-1-14z"/><path fill="#85ac9f" d="m362 267 6 2v6l-4-1v-5l-3 3-1 7-2 1v-7l2-5z"/><path fill="#f2bc9b" d="M389 270h7l-1 8-3 1-1-4-3-1z"/><path fill="#fbd6bf" d="m335 313 10 1 4 2-21 1 2-3z"/><path fill="#e6eff3" d="M569 60h3v14h-3z"/><path fill="#0a0b10" d="m392 316 10 3 3 3h-12l2-1v-2l-4-2z"/><path fill="#b16d3f" d="M278 683h1v5l-6 12-1 3-3-1z"/><path fill="#0a070b" d="M362 290h10l-4 2-5 1v2l-3 1 2 2-4-1-1-3 5-3z"/><path fill="#cfe5fc" d="m381 295 3 1v13l-3-2z"/><path fill="#bee1d3" d="m409 268 4 1-3 3-1 6-3 1-1-5 2-5z"/><path fill="#0a070b" d="M459 316h1v7l-9-1-4-3v-2h2l1 2 9 1z"/><path fill="#0a080c" d="m368 303 1 2-4 10h-2l-1 2 1-7 4-6z"/><path fill="#ecf3f4" d="m618 707 5 1 3 5v2h2l-1 4-9-11z"/><path fill="#d8dad9" d="M374 280h1l-1 7-3 3h-4l1-3h2l2-4z"/><path fill="#0d1b20" d="M461 10h9l-1 3h-13l1-2z"/><path fill="#28a37b" d="m416 271 3 1 3 7 2 4v5l-3-4-5-12z"/><path fill="#c4c3c1" d="M439 311h6l-4 5-4-1-2-2z"/><path fill="#0b1115" d="m353 318 7 1 3 2-1 2h-7l-2-1z"/><path fill="#26a27b" d="m415 292 6 1-2 1-2 5-3-3z"/><path fill="#f2bc9b" d="m370 262 9 3 2 3-7-1-4-3z"/><path fill="#bf6737" d="m419 272 5 4 1 6-3-1-3-5z"/><path fill="#f2bc9b" d="M392 218h5v4h-8z"/><path fill="#e3eeeb" d="M229 63h4l1 3 2 2h-7l-1-4z"/></svg>
