<svg viewBox="0 0 122.88 122.88">
  <path
    d="M104.225 113.07 92.675 111l-5.73 10.26c-4.16 5.15-6.8-3.32-7.96-6.27l-11.15-21.03c2.57-.89 5.67-3.46 8.85-6.35 6.35.13 12.27-.97 16.62-6.51l12.81 24.75 1.11 2.38c.88 3.09.42 5.13-3 4.84zM61.445.01c2.17-.09 3.88.66 5.61 1.76 2.19 1.39 4.66 4.14 7.71 5.88 4.29 2.45 12.23-.93 16.29 5.11 2.37 3.52 2.48 6.28 2.66 9.01.19 2.94.71 5.65 3.72 9.63 4.99 6.6 6.03 10.99 3.46 15.56-1.75 3.12-5.44 4.85-6.29 6.83-1.82 4.2.19 7.37-2.29 12.27-1.73 3.4-4.39 5.64-7.94 6.78-2.99.96-5.99-.43-8.39.58-4.21 1.77-7.31 5.88-10.66 6.92-1.29.4-2.58.6-3.87.59-1.29.01-2.58-.19-3.87-.59-3.35-1.04-6.45-5.15-10.66-6.92-2.4-1.01-5.4.39-8.39-.58-3.55-1.14-6.21-3.38-7.94-6.78-2.49-4.9-.48-8.07-2.29-12.27-.85-1.98-4.54-3.71-6.29-6.83-2.59-4.57-1.55-8.96 3.44-15.55 3.01-3.98 3.53-6.69 3.72-9.63.18-2.73.29-5.49 2.66-9.01 4.07-6.04 12.01-2.66 16.29-5.11 3.05-1.74 5.52-4.49 7.71-5.88 1.72-1.11 3.44-1.87 5.61-1.77zm-7.05 35.78 5.22 4.97 8.98-9.13c.89-.9 1.45-1.62 2.54-.5l3.56 3.64c1.17 1.16 1.11 1.83.01 2.91l-13.06 12.84c-2.32 2.28-1.92 2.42-4.28.08l-8.97-8.92c-.49-.53-.44-1.07.1-1.6l4.13-4.28c.63-.66 1.13-.62 1.77-.01zm7.05-19.55c13.38 0 24.23 10.85 24.23 24.23S74.825 64.7 61.445 64.7s-24.23-10.85-24.23-24.23c0-13.39 10.85-24.23 24.23-24.23zm-42.79 96.83 11.56-2.07 5.73 10.26c4.16 5.15 6.8-3.32 7.96-6.27l11.15-21.03c-2.57-.89-5.67-3.46-8.85-6.35-6.35.13-12.27-.97-16.62-6.51l-12.82 24.75-1.11 2.38c-.88 3.09-.42 5.13 3 4.84z"
    style="clip-rule:evenodd;fill-rule:evenodd" fill="currentColor" />
</svg>