<svg viewBox="0 0 122.88 122.88">
  <path
    fill="currentColor"
    d="M61.43 41.167a20.31 20.31 0 1 1-14.34 6 20.24 20.24 0 0 1 14.34-6zm-60.39 17.5a106.72 106.72 0 0 1 10.32-10.88c14.37-13.08 30.71-20.07 47.63-20.43 16.92-.36 34.09 5.92 50.35 19.32a121.91 121.91 0 0 1 12.54 12 4 4 0 0 1 .25 5 79.88 79.88 0 0 1-15.38 16.41 69.53 69.53 0 0 1-43.33 15.45 76 76 0 0 1-44.26-14.36A89.35 89.35 0 0 1 .85 63.797a3.94 3.94 0 0 1 .19-5.13zm15.63-5a99.4 99.4 0 0 0-7.59 7.69 80.86 80.86 0 0 0 14.62 13.37 68.26 68.26 0 0 0 39.69 12.93 61.69 61.69 0 0 0 38.41-13.72 70.84 70.84 0 0 0 12-12.3 110.45 110.45 0 0 0-9.5-8.86c-14.75-12.16-30.23-17.84-45.2-17.53-14.97.31-29.48 6.59-42.43 18.38zm39.69-7.79a7.87 7.87 0 1 1-7.87 7.87 7.86 7.86 0 0 1 7.87-7.87z"
    style="fill-rule:evenodd" />
</svg>