<svg viewBox="0 0 122.88 122.88">
  <path d="M61.44 0c8.31 0 16.25 1.66 23.49 4.66a61.627 61.627 0 0 1 33.29 33.29c3 7.24 4.66 15.18 4.66 23.49 0 8.31-1.66 16.25-4.66 23.49a61.627 61.627 0 0 1-33.29 33.29c-7.24 3-15.18 4.66-23.49 4.66s-16.25-1.66-23.49-4.66A61.52 61.52 0 0 1 18 104.88 61.362 61.362 0 0 1 4.66 84.93C1.66 77.69 0 69.75 0 61.44c0-8.31 1.66-16.25 4.66-23.49A61.362 61.362 0 0 1 18 18 61.627 61.627 0 0 1 37.95 4.66C45.19 1.66 53.13 0 61.44 0zm53.49 65.33H91.79c-1.13 0-2.16-.42-2.91-1.11-.78-.71-1.26-1.69-1.26-2.79 0-1.09.48-2.08 1.26-2.79.75-.68 1.78-1.11 2.91-1.11h23.14c-.45-6.33-2-12.35-4.46-17.88a53.795 53.795 0 0 0-11.11-16.16A53.67 53.67 0 0 0 83.2 12.38a53.767 53.767 0 0 0-17.87-4.43v23.12c0 1.13-.42 2.16-1.11 2.91-.71.78-1.69 1.26-2.79 1.26s-2.08-.48-2.79-1.26a4.337 4.337 0 0 1-1.11-2.91V7.95c-6.33.45-12.35 2-17.88 4.46a53.795 53.795 0 0 0-16.16 11.11 53.67 53.67 0 0 0-11.11 16.16 53.767 53.767 0 0 0-4.43 17.87h22.69c1.13 0 2.16.42 2.91 1.11.78.71 1.26 1.69 1.26 2.79 0 1.09-.48 2.08-1.26 2.79-.75.68-1.78 1.11-2.91 1.11H7.95c.45 6.33 2 12.35 4.46 17.88a53.795 53.795 0 0 0 11.11 16.16 53.67 53.67 0 0 0 16.16 11.11 53.194 53.194 0 0 0 17.88 4.46v-23.7c0-1.13.42-2.16 1.11-2.91.71-.78 1.69-1.26 2.79-1.26s2.08.48 2.79 1.26c.68.75 1.11 1.78 1.11 2.91v23.7c6.33-.45 12.35-2 17.88-4.46A53.795 53.795 0 0 0 99.4 99.39a53.67 53.67 0 0 0 11.11-16.16 54.358 54.358 0 0 0 4.42-17.9z" fill="currentColor" />
</svg>